<?xml version="1.0" encoding="UTF-8" standalone="no"?>
<svg
   version="1.0"
   width="271"
   height="367"
   viewBox="0 0 203.25 275.25"
   preserveAspectRatio="xMidYMid meet"
   id="svg255"
   sodipodi:docname="ZijQK201.svg"
   inkscape:version="1.1 (c68e22c387, 2021-05-23)"
   xmlns:inkscape="http://www.inkscape.org/namespaces/inkscape"
   xmlns:sodipodi="http://sodipodi.sourceforge.net/DTD/sodipodi-0.dtd"
   xmlns="http://www.w3.org/2000/svg"
   xmlns:svg="http://www.w3.org/2000/svg">
  <defs
     id="defs259" />
  <sodipodi:namedview
     id="namedview257"
     pagecolor="#ffffff"
     bordercolor="#666666"
     borderopacity="1.0"
     inkscape:pageshadow="2"
     inkscape:pageopacity="0.0"
     inkscape:pagecheckerboard="false"
     inkscape:document-units="pt"
     showgrid="false"
     units="px"
     inkscape:showpageshadow="false"
     showguides="false"
     inkscape:zoom="0.90028971"
     inkscape:cx="312.67713"
     inkscape:cy="181.60821"
     inkscape:window-width="1366"
     inkscape:window-height="705"
     inkscape:window-x="-8"
     inkscape:window-y="-8"
     inkscape:window-maximized="1"
     inkscape:current-layer="svg255" />
  <metadata
     id="metadata135">
Created by potrace 1.10, written by Peter Selinger 2001-2011
</metadata>
  <g
     transform="matrix(0.01511379,0,0,-0.01543192,-0.60027922,279.05053)"
     fill="#20124d"
     stroke="none"
     id="g253">
    <path
       d="m 1235,17893 c -51,-57 -63,-72 -85,-104 -13,-19 -35,-48 -49,-66 -14,-17 -46,-57 -71,-88 -25,-31 -60,-73 -77,-94 -18,-21 -33,-42 -33,-47 -1,-5 -21,-29 -45,-54 -25,-25 -45,-49 -45,-54 0,-5 -15,-26 -32,-46 -18,-21 -58,-70 -88,-110 -30,-40 -60,-78 -65,-84 -10,-9 -113,-141 -210,-266 -16,-21 -43,-56 -60,-77 -16,-21 -72,-91 -125,-156 -52,-65 -103,-131 -112,-145 -33,-51 -28,-54 92,-49 l 110,4 72,-37 c 225,-114 263,-140 398,-275 139,-139 135,-132 171,-280 6,-21 14,-44 18,-50 5,-5 12,-23 17,-40 4,-16 11,-2071 15,-4565 4,-3274 9,-4552 17,-4595 6,-33 16,-89 21,-125 5,-36 14,-81 20,-100 6,-19 11,-52 11,-73 0,-72 158,-517 203,-572 4,-5 50,-75 101,-155 94,-145 138,-207 173,-245 11,-11 43,-47 72,-80 212,-239 203,-231 451,-470 120,-117 245,-215 274,-215 4,0 51,-27 105,-60 55,-33 102,-60 105,-60 4,0 23,-11 44,-23 20,-13 69,-41 107,-62 39,-21 93,-51 120,-66 28,-16 94,-51 149,-79 54,-28 116,-62 137,-76 21,-13 43,-24 48,-24 5,0 11,-3 13,-8 4,-8 132,-71 198,-97 55,-21 106,-44 142,-62 14,-7 31,-13 36,-13 6,0 40,-13 75,-30 36,-16 70,-30 75,-30 6,0 23,-6 39,-14 50,-26 101,-46 115,-46 19,0 148,-29 183,-41 17,-6 46,-15 65,-19 19,-5 73,-18 120,-30 47,-12 101,-26 120,-30 48,-12 253,-66 320,-85 30,-9 87,-25 125,-36 83,-23 108,-30 200,-59 39,-12 84,-26 100,-30 17,-5 55,-17 85,-26 30,-9 78,-22 105,-29 28,-7 61,-17 75,-23 14,-6 52,-18 85,-27 63,-17 186,-63 270,-101 114,-51 235,-104 240,-104 3,0 39,-16 81,-35 41,-19 78,-35 80,-35 8,0 96,-39 131,-58 38,-21 159,-129 329,-294 66,-65 125,-118 130,-118 5,0 41,32 79,71 92,92 147,132 280,202 178,93 548,268 690,327 11,4 49,21 85,38 114,53 183,80 260,102 41,12 91,28 110,35 50,18 145,45 159,45 7,0 27,6 44,14 18,8 41,16 52,19 11,3 52,15 90,27 39,12 84,25 100,30 71,19 242,71 260,79 11,5 56,19 100,31 44,12 89,25 100,30 11,5 67,25 125,44 58,19 130,44 160,56 30,11 71,25 90,30 19,5 78,24 130,43 52,19 102,36 110,39 8,3 31,10 50,17 19,7 71,23 115,37 44,14 89,29 100,34 11,5 47,18 80,29 33,10 92,34 130,51 39,18 86,39 105,47 19,8 49,21 65,28 54,24 119,52 175,75 30,12 73,30 95,40 84,39 299,130 306,130 23,0 109,74 229,195 74,75 242,238 373,362 131,125 256,249 278,277 22,28 56,72 77,97 20,25 64,79 96,120 32,41 64,79 70,84 17,15 62,78 68,95 3,8 59,108 125,221 128,221 130,225 162,339 12,41 27,89 32,105 10,28 29,104 48,186 4,19 12,42 17,50 4,8 12,68 16,134 4,66 12,167 17,225 5,61 9,1898 10,4381 1,3788 3,4278 16,4289 8,7 15,20 15,28 0,9 6,34 14,57 8,22 22,67 31,100 9,33 27,78 38,100 85,158 118,223 127,243 12,29 117,158 156,193 16,14 43,42 61,62 31,36 73,62 241,149 54,28 82,49 82,60 0,17 -31,64 -125,193 -25,33 -56,80 -71,105 -15,25 -37,56 -49,70 -12,14 -50,66 -84,115 -33,50 -79,115 -100,145 -22,30 -72,102 -112,160 -39,58 -80,116 -91,130 -10,14 -30,41 -43,60 -49,71 -121,173 -140,200 -11,15 -29,40 -40,56 -11,16 -37,53 -57,82 l -39,52 H 6839 1259 Z m 11100,-241 c 13,-9 79,-97 144,-192 29,-41 80,-114 114,-161 34,-48 108,-151 164,-230 57,-79 111,-154 120,-166 10,-12 38,-51 63,-88 25,-37 60,-85 78,-107 49,-61 44,-73 -54,-153 -156,-127 -209,-182 -271,-281 -32,-53 -66,-108 -75,-122 -10,-15 -31,-52 -47,-83 -17,-31 -44,-81 -62,-110 -50,-85 -58,-111 -88,-293 -5,-30 -13,-61 -18,-68 -4,-7 -10,-1951 -13,-4319 -3,-2985 -8,-4310 -16,-4320 -5,-8 -21,-59 -33,-114 -13,-55 -30,-117 -37,-138 -8,-20 -14,-48 -14,-62 0,-13 -5,-27 -10,-30 -5,-3 -10,-17 -10,-30 0,-13 -7,-50 -16,-82 -9,-32 -18,-69 -21,-83 -2,-14 -8,-34 -13,-45 -5,-11 -18,-63 -30,-115 -38,-164 -43,-176 -155,-350 -12,-19 -31,-49 -41,-67 -10,-17 -57,-92 -104,-167 -47,-74 -92,-148 -100,-163 -9,-15 -35,-56 -58,-91 -23,-35 -42,-67 -42,-71 0,-10 -135,-138 -285,-271 -65,-58 -144,-129 -175,-158 -31,-29 -77,-69 -100,-90 -24,-20 -74,-65 -111,-100 -38,-34 -73,-62 -79,-62 -6,0 -41,-14 -78,-31 -109,-51 -164,-75 -222,-100 -30,-12 -59,-26 -65,-30 -5,-4 -55,-26 -110,-49 -55,-23 -131,-57 -170,-75 -123,-57 -263,-115 -280,-115 -8,0 -23,-4 -33,-9 -41,-20 -92,-40 -167,-66 -44,-15 -136,-47 -205,-71 -69,-25 -159,-56 -200,-69 -41,-14 -84,-29 -95,-34 -11,-5 -56,-19 -100,-31 -44,-13 -114,-33 -155,-46 -41,-12 -102,-30 -135,-39 -33,-9 -76,-23 -95,-30 -19,-8 -69,-23 -110,-35 -41,-12 -109,-33 -150,-46 -41,-13 -88,-26 -105,-29 -16,-4 -39,-10 -50,-14 -11,-5 -47,-18 -80,-29 -52,-18 -229,-94 -350,-151 -41,-19 -195,-88 -250,-111 -26,-11 -107,-41 -285,-104 -25,-9 -53,-21 -62,-26 -10,-6 -24,-10 -33,-10 -13,0 -92,-36 -165,-75 -14,-8 -59,-30 -100,-50 -41,-20 -136,-72 -210,-116 -75,-43 -142,-79 -150,-78 -8,0 -41,31 -73,68 -54,64 -64,71 -145,101 -48,18 -115,45 -149,61 -35,16 -66,29 -70,29 -15,0 -100,45 -130,69 -96,77 -81,71 -543,227 -58,19 -119,42 -137,50 -17,8 -37,14 -45,14 -13,1 -83,25 -141,48 -16,7 -39,12 -51,12 -12,0 -26,3 -30,7 -6,6 -110,37 -166,49 -14,3 -34,9 -45,14 -11,4 -60,18 -110,30 -49,12 -104,28 -122,36 -17,8 -40,14 -51,14 -11,0 -64,14 -118,30 -114,35 -128,40 -244,70 -47,12 -92,25 -100,28 -18,7 -145,41 -180,48 -14,3 -39,12 -57,20 -17,8 -38,14 -46,14 -17,0 -66,19 -157,62 -36,17 -117,55 -180,85 -63,30 -146,69 -185,88 -95,46 -187,87 -333,151 -130,57 -265,125 -291,148 -9,7 -41,27 -71,45 -30,17 -64,37 -74,44 -125,78 -157,97 -162,97 -6,0 -137,111 -159,135 -5,5 -59,53 -120,105 -242,208 -545,525 -545,570 0,5 -6,15 -12,22 -15,16 -78,107 -78,112 0,2 -24,41 -54,86 -37,56 -70,126 -105,223 -29,78 -59,158 -68,177 -15,35 -26,92 -42,221 -4,36 -12,72 -17,80 -5,8 -13,41 -18,74 -5,36 -11,1908 -15,4605 -3,2500 -10,4554 -14,4565 -20,46 -26,63 -47,125 -12,36 -25,74 -30,85 -4,11 -20,54 -36,95 -27,72 -65,123 -180,237 -18,18 -45,49 -60,69 -16,21 -104,86 -208,156 -100,66 -185,126 -189,134 -6,11 3,28 30,58 40,45 107,125 218,261 36,44 81,98 100,120 18,22 53,63 76,90 23,28 45,52 48,55 3,3 19,23 35,45 16,22 46,59 65,81 90,104 127,148 140,167 8,12 22,28 30,37 9,9 35,37 58,63 l 42,47 h 5478 c 3013,0 5483,-4 5488,-8 z"
       id="path137" />
    <path
       d="m 6495,16067 c -144,-35 -246,-117 -264,-212 -5,-26 -14,-52 -20,-58 -16,-16 -14,-113 3,-145 8,-15 23,-35 34,-45 11,-10 32,-37 47,-61 35,-55 152,-125 260,-156 44,-12 84,-26 90,-31 5,-5 16,-9 26,-9 33,0 68,-39 74,-83 9,-65 -5,-98 -56,-128 -74,-45 -123,-36 -196,37 -24,24 -32,42 -35,75 l -3,44 -75,-1 c -41,0 -103,-4 -138,-9 -81,-10 -87,-28 -41,-122 48,-98 86,-151 122,-169 18,-9 46,-26 62,-38 52,-38 102,-48 210,-43 192,10 254,28 328,96 40,37 87,123 87,159 0,17 5,34 10,37 16,10 12,135 -6,185 -9,25 -26,59 -38,75 -13,17 -26,40 -30,52 -5,16 -36,37 -99,69 -51,25 -107,55 -126,66 -18,12 -51,25 -72,30 -21,4 -57,12 -79,17 -74,16 -101,59 -72,118 20,43 51,55 123,46 39,-5 55,-12 74,-35 14,-16 25,-37 25,-47 0,-31 22,-41 95,-41 102,0 176,11 182,27 3,7 -9,48 -26,91 -39,96 -99,160 -181,193 -66,26 -217,34 -295,16 z"
       id="path139" />
    <path
       d="m 7657,16051 c -43,-16 -88,-37 -100,-45 -12,-9 -36,-27 -52,-39 -62,-45 -81,-63 -113,-106 -17,-25 -32,-53 -32,-62 0,-10 -4,-21 -10,-24 -5,-3 -10,-16 -10,-29 0,-12 -4,-26 -9,-31 -20,-21 -41,-141 -41,-231 0,-99 22,-188 77,-313 45,-105 157,-198 294,-245 50,-18 214,-22 224,-6 3,6 26,10 51,10 27,0 62,9 87,22 67,34 76,38 93,38 9,0 36,17 59,38 24,20 54,47 69,59 l 26,21 v 230 c 0,200 -2,231 -16,236 -9,3 -105,6 -214,6 -157,0 -200,-3 -209,-14 -8,-9 -11,-50 -9,-117 l 3,-104 h 83 c 96,0 102,-4 102,-82 0,-48 -2,-52 -36,-72 -50,-30 -170,-61 -205,-54 -41,8 -112,74 -143,133 -25,48 -26,55 -26,227 0,195 6,218 65,259 14,11 39,29 55,42 21,17 41,22 81,22 71,0 119,-25 142,-72 16,-35 21,-38 57,-38 23,0 57,7 77,15 19,8 55,15 80,15 90,0 103,30 51,126 -41,77 -62,103 -97,123 -16,9 -46,28 -68,42 -42,29 -81,37 -218,44 -81,4 -97,2 -168,-24 z"
       id="path141" />
    <path
       d="m 5125,16048 c -3,-7 -4,-260 -3,-563 l 3,-550 h 145 145 l 3,195 c 1,107 6,198 11,203 5,5 68,10 139,11 104,2 135,6 154,19 13,10 49,36 82,60 64,46 74,61 105,158 44,139 13,302 -78,402 -13,15 -31,27 -38,27 -7,0 -36,11 -65,25 -51,25 -54,25 -325,25 -210,0 -275,-3 -278,-12 z m 487,-245 c 8,-10 20,-37 27,-60 10,-35 9,-52 -4,-98 -19,-64 -26,-67 -135,-63 l -75,3 -3,104 c -1,58 0,111 2,118 4,9 29,13 89,13 68,0 87,-3 99,-17 z"
       id="path143" />
    <path
       d="m 5105,14030 c -33,-16 -66,-29 -73,-29 -8,-1 -28,-7 -45,-15 -18,-8 -79,-35 -137,-61 -58,-26 -121,-54 -140,-62 -112,-47 -155,-71 -207,-114 -32,-27 -68,-49 -81,-49 -13,0 -43,-19 -70,-44 -26,-24 -83,-63 -127,-87 -44,-23 -87,-48 -95,-54 -8,-7 -46,-29 -83,-49 -37,-20 -112,-71 -167,-114 -55,-42 -119,-91 -142,-108 -50,-36 -348,-332 -386,-384 -15,-19 -42,-54 -62,-77 -132,-157 -417,-518 -458,-582 -20,-30 -45,-64 -55,-74 -22,-22 -56,-95 -57,-119 0,-14 9,-17 58,-15 l 57,2 v -45 c 0,-35 -4,-45 -18,-48 -10,-2 -27,4 -38,14 -18,16 -21,16 -57,-9 -37,-24 -163,-143 -210,-198 -23,-26 -32,-63 -57,-217 -9,-52 -20,-102 -25,-112 -6,-10 -10,-49 -10,-87 -1,-40 -7,-78 -15,-93 -8,-14 -14,-33 -15,-43 0,-10 -13,-46 -29,-80 -23,-49 -29,-78 -30,-137 -2,-69 -6,-83 -58,-190 -50,-100 -58,-124 -61,-186 -3,-52 0,-79 12,-102 21,-41 22,-179 1,-229 -20,-47 -19,-152 1,-217 9,-28 22,-71 30,-96 16,-52 19,-261 4,-276 -5,-5 -13,-30 -16,-54 -6,-42 -3,-49 40,-108 25,-34 46,-69 46,-78 0,-9 7,-30 15,-47 9,-21 16,-77 19,-162 4,-148 19,-265 41,-327 8,-24 15,-51 15,-61 0,-10 20,-49 45,-87 25,-38 45,-73 45,-78 0,-12 68,-167 90,-205 10,-18 28,-55 39,-84 11,-28 39,-80 63,-115 24,-35 53,-84 65,-109 13,-25 45,-71 72,-101 59,-69 171,-235 200,-301 12,-26 30,-57 39,-68 36,-41 107,-109 116,-109 4,0 25,-14 46,-30 21,-16 48,-30 59,-30 51,0 138,-68 185,-143 10,-16 26,-54 37,-84 34,-99 138,-203 269,-267 36,-18 92,-43 125,-56 33,-12 74,-28 90,-35 17,-7 77,-28 135,-46 58,-18 137,-45 175,-61 39,-15 84,-28 101,-28 36,0 74,35 74,69 0,25 -89,125 -131,147 -20,10 -50,62 -126,216 -55,112 -108,221 -118,243 -9,22 -23,55 -31,73 -8,18 -14,45 -14,60 0,67 -57,189 -154,329 -39,57 -80,119 -91,137 -73,123 -165,224 -289,319 -48,36 -90,79 -109,108 -16,27 -33,49 -37,49 -3,0 -14,-16 -23,-35 -9,-19 -21,-35 -26,-35 -24,0 -70,28 -121,73 -86,76 -121,91 -194,82 -34,-5 -118,-8 -188,-9 l -127,-1 -35,40 c -19,22 -35,44 -36,48 0,5 25,35 56,67 43,46 63,59 92,62 49,7 80,-6 84,-34 3,-20 10,-23 52,-26 90,-6 86,24 -12,86 -71,45 -95,71 -106,115 -7,29 -26,38 -26,12 0,-9 -9,-34 -20,-55 -18,-35 -25,-40 -55,-40 -25,0 -38,7 -53,28 -26,37 -33,69 -21,99 9,24 12,25 82,22 l 72,-4 3,60 c 4,78 14,89 74,82 44,-6 126,-50 143,-77 4,-6 -8,-32 -25,-58 l -31,-47 22,-17 c 11,-10 33,-18 48,-18 48,0 113,-55 176,-150 63,-93 103,-148 124,-172 11,-11 25,-33 31,-49 7,-16 16,-29 21,-29 11,0 12,18 9,140 -2,111 -11,129 -108,226 -40,40 -62,71 -67,94 -4,19 -13,49 -20,65 -7,17 -16,44 -20,60 -3,17 -10,48 -16,70 -6,22 -13,54 -15,70 -3,17 -9,39 -13,50 -5,11 -13,38 -19,60 -12,47 -58,177 -77,220 -7,17 -21,74 -31,128 -15,83 -16,108 -6,156 15,72 14,196 -1,236 -7,17 -29,53 -50,82 -33,45 -46,54 -94,68 -56,16 -144,16 -205,0 -20,-5 -35,-1 -57,15 -38,27 -38,35 -2,68 69,64 123,92 176,91 54,-1 65,-6 125,-61 28,-27 55,-48 59,-48 5,0 23,28 41,63 18,34 40,76 50,92 10,17 25,62 35,100 9,39 22,79 28,90 6,11 14,97 18,190 11,256 8,247 143,473 64,107 88,163 101,237 4,22 18,61 31,87 23,44 24,59 24,225 1,135 4,184 15,203 8,14 14,35 15,46 0,12 7,35 15,50 8,16 15,48 15,72 0,59 32,106 158,229 57,57 114,116 126,132 71,97 129,168 209,260 87,98 167,204 167,220 0,11 55,61 67,61 11,0 64,39 136,101 23,19 58,46 77,59 19,13 42,30 50,37 8,8 40,33 71,56 84,62 349,266 389,299 19,16 40,32 45,36 69,50 103,88 164,181 39,60 71,114 71,120 0,18 -31,12 -95,-19 z m -525,-395 c 6,-8 10,-29 8,-47 -3,-33 -4,-33 -53,-33 h -50 l -3,39 c -2,23 2,42 9,46 20,13 77,9 89,-5 z m -306,-191 c 32,-31 13,-80 -57,-152 -52,-54 -136,-102 -175,-102 -15,0 -23,8 -28,28 -3,15 -10,39 -14,54 -7,23 -5,30 13,43 12,8 34,15 48,15 27,0 69,39 69,64 0,6 11,24 25,39 30,31 93,38 119,11 z m -351,-214 c 44,-26 97,-116 97,-164 0,-36 -26,-70 -62,-81 -17,-6 -67,22 -68,38 0,4 -20,43 -45,87 -50,87 -53,104 -28,133 21,22 53,18 106,-13 z m -95,-270 c 2,-14 10,-32 19,-42 13,-14 12,-21 -8,-60 -12,-23 -42,-66 -66,-95 -41,-47 -49,-52 -99,-59 -64,-7 -114,9 -114,37 0,10 -6,22 -12,26 -32,20 -37,38 -24,76 13,38 27,48 126,90 19,8 58,24 85,36 63,26 89,24 93,-9 z m -276,-288 c 33,-36 42,-72 24,-100 -10,-17 -140,-16 -154,1 -6,6 -14,25 -17,40 -6,24 -2,34 26,63 45,46 77,45 121,-4 z m -192,-77 c 16,-19 6,-43 -22,-54 -49,-18 -83,39 -35,59 32,13 43,12 57,-5 z m -95,-141 c 18,-12 37,-14 79,-9 55,7 56,7 56,-18 0,-25 -30,-53 -43,-41 -13,13 -96,-23 -133,-58 l -41,-39 -27,31 c -42,50 -32,88 34,133 30,21 44,21 75,1 z m -154,-231 c 53,-48 73,-86 59,-114 -10,-19 -18,-20 -98,-15 -117,6 -169,16 -183,33 -16,19 6,92 29,99 9,3 28,12 42,19 14,8 44,15 67,15 36,0 50,-6 84,-37 z m 215,-7 c 8,-22 -32,-106 -51,-106 -26,0 -65,46 -65,78 0,38 5,42 62,42 33,0 50,-5 54,-14 z m -273,-224 c 15,-15 27,-33 27,-40 0,-13 -32,-67 -105,-177 -50,-75 -50,-75 -21,-178 22,-81 21,-142 -5,-184 -17,-27 -27,-33 -48,-31 -32,4 -60,55 -61,114 0,22 -7,63 -15,90 -33,110 -12,201 70,304 28,35 61,78 74,96 29,41 49,43 84,6 z m 117,-167 c 7,-8 18,-15 24,-15 20,0 52,-41 75,-95 21,-49 22,-50 4,-87 -10,-20 -27,-41 -38,-46 -118,-54 -158,-56 -204,-13 -28,26 -31,35 -31,86 0,46 5,64 30,100 53,77 110,106 140,70 z m -509,-275 c 7,-50 21,-85 62,-147 15,-24 27,-47 27,-53 0,-6 25,-37 55,-70 30,-33 55,-64 55,-69 0,-12 -55,-79 -141,-172 -39,-42 -71,-81 -70,-85 0,-5 38,-11 83,-14 l 83,-5 v -79 c 0,-93 -12,-110 -67,-87 -18,7 -46,16 -63,19 -16,2 -46,15 -65,28 -43,30 -49,30 -115,-2 -30,-14 -59,-23 -65,-19 -13,8 -13,43 0,97 5,24 12,55 15,69 5,26 64,70 131,98 17,7 36,23 43,37 6,13 16,34 22,47 13,29 8,89 -8,94 -6,2 -24,-9 -40,-26 -21,-22 -39,-30 -73,-33 l -45,-3 -3,118 -3,118 29,27 c 30,29 52,71 52,100 0,35 30,63 63,60 30,-3 32,-6 38,-48 z m 477,-146 c 2,-12 -9,-39 -23,-60 -14,-20 -28,-49 -31,-63 -3,-14 -9,-42 -14,-61 -5,-19 -11,-66 -14,-104 -4,-68 -5,-69 -59,-123 -46,-47 -60,-55 -91,-55 -46,0 -59,11 -76,63 -14,41 -13,42 13,63 52,39 117,99 117,106 0,4 -11,19 -25,34 -41,45 -34,84 27,151 59,65 77,75 133,72 32,-2 41,-6 43,-23 z m -705,-687 c 28,-8 62,-27 85,-48 20,-19 63,-52 95,-72 33,-22 57,-44 57,-55 0,-9 -16,-34 -35,-54 -25,-28 -42,-38 -64,-38 -17,0 -41,-5 -55,-11 -22,-10 -30,-8 -58,13 -18,14 -44,46 -56,72 -13,25 -41,72 -62,103 -36,53 -37,58 -23,80 17,26 44,28 116,10 z m 496,-37 c 42,-80 9,-160 -65,-160 -64,0 -74,12 -74,87 0,59 3,70 27,95 42,44 81,36 112,-22 z m -358,-481 c 10,-5 29,-9 43,-9 15,0 34,-4 44,-9 9,-6 40,-20 67,-33 108,-49 173,-108 160,-147 -3,-10 -23,-24 -45,-31 -42,-14 -56,-12 -170,28 -53,19 -197,103 -234,137 -53,49 -19,89 68,79 27,-3 57,-9 67,-15 z m -82,-166 c 74,-24 86,-32 108,-66 48,-77 16,-101 -89,-66 -119,39 -183,102 -148,145 17,20 33,18 129,-13 z m 329,-279 c 2,-106 0,-133 -12,-143 -26,-22 -71,-3 -120,50 l -46,50 v 77 c 0,49 5,83 12,90 9,9 38,12 88,10 l 75,-3 z m -350,97 c 68,-35 83,-60 80,-132 l -3,-64 -40,-3 c -58,-5 -102,22 -131,81 -33,65 -29,97 16,119 42,22 33,22 78,-1 z m 170,-234 c 7,-6 12,-20 10,-31 -2,-17 -11,-22 -45,-24 -41,-3 -43,-2 -43,25 0,50 36,64 78,30 z m 324,-1 c 17,-39 4,-58 -39,-54 -34,3 -38,6 -41,32 -6,49 59,67 80,22 z m -388,-231 c 27,-8 54,-19 60,-24 27,-21 75,-22 115,-2 51,27 69,26 98,-1 29,-28 31,-78 3,-103 -21,-19 -70,-40 -121,-53 -15,-4 -44,-29 -67,-58 -22,-29 -55,-62 -72,-74 -31,-22 -32,-22 -73,-4 -65,28 -87,52 -87,95 0,32 6,42 40,69 39,31 40,33 40,94 0,50 5,77 14,76 1,0 23,-7 50,-15 z m 503,-102 c 34,-37 36,-51 11,-115 -9,-24 -16,-28 -49,-28 -31,0 -47,8 -79,36 -44,40 -50,66 -25,114 26,51 90,48 142,-7 z m 18,-793 c 86,-22 131,-47 174,-96 l 41,-47 23,21 c 35,33 89,29 149,-9 51,-33 62,-54 56,-110 -3,-32 -5,-34 -47,-37 -70,-5 -178,53 -182,98 0,8 -4,4 -8,-10 -6,-22 -13,-25 -64,-28 -42,-2 -57,-7 -57,-17 0,-8 5,-15 10,-15 6,0 10,-10 10,-23 0,-13 13,-35 28,-50 54,-52 74,-108 79,-227 6,-129 2,-134 -96,-124 l -61,7 v 45 c 0,25 5,61 12,79 10,27 10,38 0,51 -6,9 -24,39 -38,66 -15,28 -37,58 -49,68 -13,10 -26,28 -29,40 -3,13 -24,35 -46,50 l -40,28 v 123 c 0,68 3,127 7,131 10,9 61,4 128,-14 z m -195,-66 c 5,-5 6,-44 2,-94 l -7,-85 -59,-3 c -40,-2 -62,1 -68,10 -10,15 0,158 12,173 10,13 107,12 120,-1 z m 519,-296 c 119,-38 269,-103 289,-125 26,-29 28,-45 6,-78 -20,-31 -66,-33 -109,-5 -36,24 -58,25 -75,5 -13,-16 -87,-21 -105,-7 -6,4 -27,32 -48,62 -39,58 -50,123 -25,148 15,15 23,15 67,0 z m 505,-402 c 18,-7 43,-27 54,-43 18,-25 20,-36 12,-64 -8,-27 -18,-37 -52,-51 -37,-14 -71,-16 -237,-12 -106,2 -198,7 -202,10 -18,11 -8,43 22,68 28,24 39,26 117,26 102,0 146,11 181,44 24,22 45,33 64,35 4,1 23,-5 41,-13 z m -539,-56 c 9,-28 -3,-58 -25,-65 -41,-13 -85,39 -60,70 19,23 77,19 85,-5 z m 380,-255 c 0,-34 -3,-40 -24,-43 -40,-6 -71,7 -91,40 -10,17 -17,35 -14,40 3,5 33,8 67,6 l 62,-3 z m 220,-60 c 14,-13 25,-28 25,-33 0,-40 -141,-132 -203,-132 -70,0 -74,65 -9,127 71,67 144,82 187,38 z"
       id="path145" />
    <path
       d="m 8550,13981 c -19,-10 -36,-25 -38,-34 -5,-23 125,-144 282,-265 160,-123 201,-155 236,-179 14,-10 78,-58 144,-108 65,-49 137,-101 161,-115 23,-14 50,-33 60,-43 9,-10 34,-26 55,-37 88,-45 270,-213 439,-405 119,-136 235,-306 325,-478 l 68,-132 1,-85 c 0,-47 -3,-126 -8,-176 -7,-87 3,-170 26,-214 4,-8 22,-53 39,-100 17,-47 45,-111 61,-142 16,-32 29,-64 29,-72 0,-8 7,-21 14,-29 8,-8 29,-54 45,-103 24,-68 31,-107 31,-165 0,-50 5,-82 15,-95 10,-14 14,-48 15,-130 0,-69 6,-130 15,-160 8,-27 15,-62 15,-79 1,-16 7,-41 15,-55 8,-14 14,-38 15,-53 0,-15 6,-40 14,-55 15,-28 74,-85 107,-103 11,-5 19,-17 19,-25 0,-15 -49,-138 -70,-176 -13,-23 -13,-60 1,-95 6,-15 12,-53 15,-83 4,-60 -17,-117 -83,-215 l -33,-50 v -160 c 0,-181 -8,-217 -66,-292 -20,-27 -49,-73 -64,-103 -31,-63 -56,-108 -87,-156 -12,-18 -24,-52 -27,-76 -5,-41 -19,-84 -44,-138 -7,-14 -16,-50 -21,-80 -17,-95 -27,-134 -42,-160 -44,-78 -178,-233 -224,-261 -38,-23 -93,-103 -238,-344 -134,-223 -168,-292 -178,-360 -15,-99 -29,-170 -38,-190 -5,-11 -19,-41 -31,-67 -22,-49 -187,-232 -218,-243 -9,-3 -36,-30 -59,-59 -36,-45 -43,-60 -43,-98 0,-70 29,-84 98,-49 20,10 46,28 56,40 11,12 23,21 28,21 5,0 24,11 41,24 43,32 206,99 228,93 27,-7 149,22 274,66 39,14 83,28 99,31 37,9 128,79 185,142 24,27 57,63 72,81 16,17 29,35 29,39 0,15 226,236 255,249 47,21 170,134 212,195 38,54 55,87 89,165 9,22 25,51 35,64 11,13 24,42 30,65 7,25 29,60 58,91 26,28 55,62 65,76 37,57 57,151 65,309 5,112 9,131 35,180 16,30 43,72 60,94 29,38 29,39 17,95 -23,102 -25,156 -6,172 46,38 62,62 84,130 13,41 30,88 38,106 7,17 13,47 13,66 0,19 7,71 15,114 8,43 15,108 15,144 0,36 7,90 16,119 12,40 15,87 13,175 -1,66 -3,190 -3,275 l -1,155 33,56 c 40,70 40,97 2,134 -16,16 -30,36 -30,45 0,9 -4,20 -9,25 -23,24 -101,197 -101,224 0,29 8,56 34,110 22,47 14,112 -19,155 -28,37 -30,47 -35,145 -5,96 -9,113 -43,184 -20,42 -37,79 -37,82 0,4 -72,157 -131,280 -22,44 -52,103 -68,130 -17,28 -48,86 -71,130 -22,44 -64,113 -92,153 -47,68 -58,77 -127,109 -95,44 -131,76 -131,117 -1,78 -68,170 -271,375 -151,152 -158,156 -186,99 -21,-41 -50,-61 -101,-66 -44,-4 -49,-2 -60,22 -7,15 -12,29 -12,32 0,3 29,36 65,74 67,68 73,88 36,106 -10,5 -34,21 -52,36 -84,66 -280,208 -288,208 -5,0 -14,7 -21,15 -12,14 -181,133 -228,160 -9,6 -42,26 -72,46 -61,39 -64,41 -240,130 -117,60 -147,74 -210,97 -14,6 -51,22 -82,36 -31,14 -63,26 -71,26 -9,0 -57,14 -107,30 -50,17 -95,30 -99,30 -3,0 -22,-8 -41,-19 z m 594,-257 c 6,-15 -26,-88 -43,-99 -16,-9 -81,55 -81,80 0,19 6,25 33,28 68,8 85,7 91,-9 z m 271,-133 c 66,-42 131,-98 143,-124 14,-29 40,-45 127,-78 67,-25 81,-45 96,-130 30,-181 27,-189 -66,-189 -60,0 -62,1 -80,35 -18,31 -18,37 -4,67 18,40 14,65 -12,73 -11,4 -25,18 -31,31 -8,16 -47,42 -127,81 -122,62 -201,127 -201,167 0,69 90,108 155,67 z m 551,-465 c 16,-13 17,-18 6,-33 -6,-10 -16,-28 -22,-40 -12,-28 -57,-41 -75,-22 -8,8 -17,26 -20,41 -13,53 62,89 111,54 z m 5,-225 c 23,-19 23,-20 6,-55 -18,-40 -41,-46 -57,-17 -11,22 -14,74 -3,84 11,12 30,8 54,-12 z m 170,-76 c 13,-13 32,-34 42,-45 13,-15 29,-20 67,-20 56,0 84,-12 179,-76 35,-24 66,-44 70,-44 3,0 16,-15 29,-34 17,-26 22,-45 20,-77 -3,-39 -7,-46 -38,-61 -22,-11 -46,-16 -65,-12 -89,16 -103,16 -116,-1 -38,-46 -60,-66 -69,-60 -6,3 -10,36 -10,73 0,89 -24,132 -75,132 -43,0 -105,50 -105,86 0,13 -14,39 -31,58 -22,25 -29,43 -27,63 3,25 8,29 48,34 25,3 48,7 51,7 3,1 17,-9 30,-23 z m 457,-457 c 37,-43 48,-73 51,-145 1,-9 23,-13 77,-13 100,0 114,-8 114,-68 0,-50 -25,-104 -63,-134 -31,-25 -80,-22 -137,7 -39,20 -53,34 -69,69 -10,24 -31,61 -45,82 -29,43 -28,45 -26,-74 1,-44 -3,-79 -11,-88 -7,-9 -31,-14 -70,-14 -56,0 -60,2 -79,33 -23,36 -28,134 -9,170 24,46 62,77 95,77 24,0 34,5 39,20 3,11 4,24 1,28 -9,14 24,52 57,66 45,20 45,20 75,-16 z m 352,-402 c 39,-43 45,-157 8,-155 -7,0 -33,15 -58,33 -39,28 -45,38 -48,74 -3,36 0,43 25,56 38,21 46,20 73,-8 z m -210,-35 c 13,-1 22,-11 26,-28 4,-16 31,-77 60,-138 58,-122 108,-260 99,-275 -10,-15 -61,-12 -75,5 -7,8 -19,15 -27,15 -23,0 -72,39 -88,69 -7,15 -34,38 -58,51 l -44,23 -47,-22 c -44,-22 -48,-22 -81,-7 -18,9 -44,30 -57,47 -13,17 -36,45 -52,62 -29,31 -38,71 -24,108 4,9 32,25 63,34 l 56,18 69,-68 c 63,-62 68,-66 75,-46 4,12 5,49 3,82 -4,76 -2,77 102,70 z m 291,-256 c 33,-56 21,-85 -35,-85 -30,0 -46,18 -46,53 0,69 48,88 81,32 z m -216,-260 c 0,-29 -1,-30 -49,-30 -52,0 -75,18 -63,49 5,14 17,16 59,14 52,-3 53,-4 53,-33 z m 309,9 c 19,-7 60,-90 53,-108 -3,-8 -33,-15 -84,-19 -93,-8 -123,-2 -123,25 0,29 38,96 57,101 27,7 80,8 97,1 z m -446,-80 c 41,-36 52,-52 52,-75 0,-17 6,-42 14,-57 7,-15 17,-43 20,-62 4,-19 12,-45 18,-57 26,-52 -23,-71 -74,-28 -16,14 -35,25 -42,25 -15,0 -94,118 -107,158 -30,100 -32,111 -19,127 7,8 28,15 49,15 29,0 47,-9 89,-46 z m 322,-155 c 48,-61 63,-110 49,-161 -10,-38 -50,-78 -77,-78 -8,0 -30,11 -48,25 -24,19 -35,37 -43,75 -15,69 -14,114 3,155 13,29 20,35 45,35 25,0 38,-10 71,-51 z m 174,-60 c 47,-27 61,-70 47,-144 -17,-89 -46,-123 -97,-111 -24,6 -24,8 -24,135 0,70 3,131 7,134 11,12 31,8 67,-14 z m -326,-169 c 24,-21 33,-39 34,-63 2,-47 -7,-57 -50,-57 -40,0 -76,19 -92,50 -18,35 20,99 60,100 9,0 30,-13 48,-30 z m 261,-146 c 24,-40 21,-83 -6,-105 -25,-21 -123,-13 -150,13 -32,30 -29,51 15,92 30,29 45,36 79,36 37,0 43,-4 62,-36 z m 226,-82 c 17,-2 36,-9 43,-14 16,-13 16,-110 0,-126 -7,-7 -38,-12 -69,-12 -53,0 -59,3 -88,35 -30,35 -31,36 -14,63 24,40 66,73 83,66 8,-4 29,-9 45,-12 z m -455,-66 c 103,-70 111,-87 59,-125 -44,-33 -85,-36 -150,-12 -47,18 -59,28 -77,65 -25,49 -27,68 -11,98 10,18 18,20 67,16 45,-4 69,-13 112,-42 z m 126,-281 c 16,-8 41,-15 56,-15 15,0 29,-4 32,-9 4,-5 24,-12 46,-16 31,-5 51,-19 100,-71 73,-79 77,-104 30,-230 -8,-20 -82,-64 -107,-64 -14,0 -22,125 -11,157 10,31 0,53 -26,53 -22,0 -47,-23 -87,-80 -26,-38 -47,-56 -97,-83 -44,-24 -90,-12 -119,32 -27,40 -20,58 34,86 72,37 88,54 84,88 -2,18 -9,44 -17,59 -15,28 -19,90 -7,101 11,12 60,8 89,-8 z m 97,-461 c 14,-18 17,-35 13,-59 -7,-37 -21,-45 -72,-45 -59,0 -74,14 -74,69 0,26 3,51 7,54 3,4 29,7 57,7 43,-1 54,-5 69,-26 z m -212,-29 c 22,-14 44,-36 49,-49 5,-13 14,-27 19,-31 14,-8 14,-80 1,-106 -15,-27 -34,-24 -72,14 -63,61 -78,88 -78,137 0,70 15,76 81,35 z m -92,-140 c 35,-17 41,-32 41,-96 0,-41 -5,-54 -26,-74 -33,-31 -80,-32 -134,-5 -35,18 -40,25 -40,56 0,35 33,113 54,126 18,13 75,9 105,-7 z m 359,-135 c 17,-16 22,-32 22,-69 0,-27 9,-68 20,-92 20,-44 26,-105 12,-125 -4,-6 -21,-18 -38,-27 -30,-15 -34,-15 -71,3 -53,25 -80,87 -83,185 -3,98 -2,103 20,125 27,27 89,27 118,0 z m -191,-218 c 15,-10 20,-129 5,-144 -11,-11 -54,-3 -118,23 -41,16 -84,5 -84,-22 0,-35 18,-56 68,-77 65,-28 91,-82 56,-116 -20,-21 -144,-22 -182,-2 -23,12 -72,66 -72,80 0,2 -16,28 -35,58 -43,63 -41,88 8,141 24,26 42,37 63,37 16,1 40,7 54,15 27,15 215,21 237,7 z m 147,-180 c 7,-12 -22,-52 -38,-52 -20,0 -39,27 -32,45 6,16 61,21 70,7 z m -536,-112 c 18,-11 35,-26 38,-34 10,-26 -22,-80 -54,-92 -29,-11 -34,-9 -71,23 -23,19 -41,40 -41,48 0,16 66,75 83,75 7,0 27,-9 45,-20 z m -77,-210 c 15,-9 19,-22 19,-65 0,-51 16,-85 40,-85 17,0 60,-48 60,-66 0,-50 -137,-174 -192,-174 -12,0 -37,14 -55,32 -30,29 -33,37 -33,90 0,39 7,70 20,95 11,21 20,44 20,51 0,7 14,39 30,72 32,62 49,72 91,50 z m 479,-119 c 9,-23 9,-38 0,-66 -26,-79 -97,-109 -153,-65 -29,23 -27,40 8,80 12,14 29,37 38,53 14,22 25,27 56,27 33,0 40,-4 51,-29 z m -190,-308 c 70,-45 104,-90 94,-127 -8,-32 -13,-32 -109,-1 -108,36 -135,56 -135,104 0,29 5,40 23,49 39,19 69,13 127,-25 z m 196,-34 c 3,-6 -1,-18 -10,-27 -15,-15 -17,-15 -32,0 -19,19 -11,38 16,38 10,0 22,-5 26,-11 z m -673,-99 c 13,-25 13,-31 1,-41 -17,-14 -61,2 -70,26 -19,49 45,64 69,15 z m 372,-49 c 5,-10 -40,-51 -57,-51 -12,0 -21,27 -14,45 6,16 61,21 71,6 z m -126,-109 c 11,-36 11,-46 -1,-63 -14,-22 -85,-52 -100,-43 -4,3 -8,25 -8,49 0,32 7,51 26,75 37,44 65,38 83,-18 z m -215,-28 c 10,-27 7,-149 -5,-161 -13,-13 -117,-6 -136,10 -19,15 -17,132 3,151 22,22 129,22 138,0 z m -244,-84 c 22,-11 40,-24 40,-28 0,-4 -11,-24 -25,-45 -21,-30 -32,-37 -60,-37 -26,0 -38,7 -54,29 -26,36 -26,42 0,75 25,31 47,33 99,6 z m 614,4 c 10,-27 7,-89 -6,-102 -22,-22 -57,-13 -99,28 -27,26 -39,45 -35,56 3,8 6,20 6,25 0,5 29,9 64,9 49,0 65,-4 70,-16 z m -329,-150 c 24,-10 44,-55 34,-81 -10,-27 -49,-39 -78,-23 -16,8 -21,20 -21,48 0,53 22,72 65,56 z m -451,-33 c 13,-14 16,-33 14,-77 l -3,-59 -42,-3 c -33,-2 -44,1 -57,20 -19,26 -21,109 -4,126 18,18 73,14 92,-7 z m 651,-48 c -9,-49 -32,-75 -64,-71 -24,3 -26,8 -29,56 l -3,52 h 52 51 z m -360,-56 c 27,-26 47,-58 54,-84 6,-23 16,-45 21,-48 6,-3 10,-20 10,-36 0,-34 -23,-48 -51,-31 -10,7 -33,12 -50,12 -18,0 -56,15 -89,35 -55,33 -59,38 -65,83 -3,26 -2,59 4,74 10,27 14,28 105,36 10,1 38,-17 61,-41 z m -326,-357 c 23,-12 81,-101 81,-123 0,-35 -43,-48 -147,-46 -62,2 -106,-2 -120,-9 -29,-16 -75,-15 -97,1 -28,20 -12,81 30,115 64,51 115,72 177,72 32,0 66,-4 76,-10 z"
       id="path147" />
    <path
       d="m 6765,13680 c -11,-4 -47,-16 -79,-26 -48,-15 -64,-26 -85,-58 -14,-21 -30,-45 -36,-52 -16,-22 32,-98 89,-139 90,-65 89,-64 77,-236 -6,-82 -11,-266 -11,-408 0,-331 -8,-471 -28,-478 -20,-8 -159,40 -224,77 -81,48 -275,140 -292,140 -8,0 -18,5 -21,10 -3,6 -13,10 -22,10 -25,0 -232,127 -284,174 -25,22 -59,53 -75,67 -16,14 -59,61 -96,105 -124,147 -199,234 -203,234 -6,0 -104,-68 -124,-87 -12,-11 -46,-37 -77,-59 -98,-70 -248,-182 -309,-234 -77,-64 -300,-212 -345,-230 -73,-28 -228,-104 -292,-143 -54,-33 -68,-47 -68,-66 v -24 l 123,6 c 67,3 136,10 152,15 114,38 144,43 225,40 l 85,-3 3,-49 c 3,-49 3,-50 -71,-125 -80,-83 -153,-184 -143,-199 8,-14 116,-14 157,-1 19,7 59,15 89,20 30,4 89,17 130,29 41,12 89,25 105,30 17,4 44,13 60,19 75,26 234,71 253,71 11,0 24,5 27,10 8,14 25,3 25,-16 0,-19 -104,-177 -150,-228 -32,-35 -83,-74 -135,-101 -19,-10 -74,-82 -75,-98 0,-4 11,-19 26,-33 30,-31 38,-30 171,32 54,25 130,59 168,76 39,17 97,43 130,58 33,15 70,30 82,34 12,4 59,25 103,47 121,59 126,47 40,-91 -89,-144 -210,-349 -210,-355 0,-18 53,11 177,96 23,16 45,29 50,29 5,0 25,12 44,26 33,24 244,155 298,183 14,8 28,18 29,23 2,4 8,8 14,8 5,0 29,14 53,30 24,17 50,30 57,30 7,0 26,22 41,50 15,27 51,70 80,95 29,24 61,59 72,76 39,60 100,75 140,34 55,-54 23,-176 -69,-268 -53,-53 -147,-117 -172,-117 -7,0 -29,14 -47,30 -19,17 -37,30 -39,30 -2,0 -14,-19 -27,-42 -12,-24 -31,-56 -41,-73 -39,-62 -52,-92 -71,-160 -11,-38 -27,-85 -36,-102 -12,-22 -14,-36 -7,-43 11,-11 15,-8 194,159 63,59 135,125 160,146 25,22 82,74 126,117 45,43 87,78 93,78 20,0 24,-29 7,-64 -12,-25 -16,-64 -16,-154 0,-67 -4,-133 -10,-147 -16,-43 -24,-388 -10,-500 6,-55 14,-146 17,-201 5,-94 4,-103 -16,-123 -16,-16 -33,-21 -73,-21 -28,0 -59,6 -67,13 -9,7 -51,35 -94,61 -62,38 -89,63 -137,127 -75,100 -79,131 -21,181 45,38 124,67 196,71 l 50,2 3,114 c 2,75 -1,118 -9,127 -17,20 -136,17 -171,-4 -15,-9 -57,-36 -95,-59 -85,-53 -118,-87 -174,-183 -42,-73 -43,-77 -44,-165 0,-82 3,-95 33,-153 17,-34 47,-75 65,-91 90,-79 147,-118 192,-136 82,-30 186,-85 192,-101 3,-10 -35,-56 -109,-132 -98,-100 -120,-130 -156,-204 -31,-63 -42,-99 -42,-133 0,-43 30,-159 51,-197 5,-10 9,-25 9,-34 0,-19 49,-90 87,-125 34,-32 140,-97 217,-134 33,-16 56,-33 56,-42 0,-9 -16,-31 -35,-50 -20,-19 -47,-51 -60,-71 -13,-21 -42,-57 -65,-82 -23,-25 -48,-60 -56,-79 -16,-37 -19,-171 -5,-199 5,-9 17,-36 26,-59 18,-43 138,-160 205,-199 16,-10 30,-27 30,-37 0,-10 -24,-42 -53,-72 -29,-29 -74,-86 -101,-125 -67,-98 -72,-146 -25,-238 34,-65 64,-100 153,-176 26,-21 49,-49 52,-61 4,-15 -10,-54 -41,-116 -25,-52 -55,-121 -67,-154 -17,-52 -18,-65 -7,-95 17,-49 60,-111 73,-107 7,2 12,42 14,102 1,54 8,105 14,112 7,9 27,13 52,11 l 41,-3 -2,-85 c -1,-47 -6,-148 -12,-225 -19,-265 -25,-510 -12,-533 16,-31 36,-27 62,10 20,27 23,47 27,142 2,61 -1,143 -8,181 -7,39 -14,103 -17,143 l -5,73 101,102 c 76,78 103,113 116,150 15,45 15,49 -3,75 -10,15 -29,48 -42,75 -13,26 -32,55 -42,64 -10,9 -18,22 -18,30 0,24 47,96 89,138 23,21 41,44 41,50 0,6 11,22 24,34 29,28 56,104 56,161 0,25 -9,54 -23,78 -13,20 -42,73 -64,117 -22,44 -44,89 -50,100 -6,11 -15,34 -21,52 -10,31 -7,35 41,86 29,30 62,60 74,66 13,6 37,40 54,74 17,34 36,69 43,77 25,29 26,52 5,103 -45,115 -82,177 -122,210 -61,47 -76,64 -83,92 -3,14 -10,28 -15,31 -5,3 -9,22 -9,42 0,27 7,42 27,59 14,13 30,23 34,23 5,0 41,20 81,45 63,38 158,129 158,151 0,4 6,15 14,23 8,9 28,51 45,94 35,88 42,193 17,269 -8,24 -17,55 -20,71 -8,33 -86,117 -109,117 -28,0 -84,42 -103,78 -27,51 -6,81 91,132 51,27 72,42 134,93 103,87 136,126 182,216 38,77 42,92 43,162 1,50 -3,82 -11,90 -7,7 -13,22 -13,34 0,44 -166,211 -258,259 -33,17 -89,21 -109,8 -17,-11 -154,-278 -146,-286 3,-3 56,-6 116,-6 85,0 115,-4 138,-17 43,-25 62,-74 57,-145 -4,-52 -9,-63 -44,-99 -40,-42 -157,-134 -232,-182 -41,-27 -45,-27 -90,-15 -34,10 -53,23 -69,47 -23,34 -23,37 -23,365 0,301 20,689 35,705 3,3 12,1 20,-4 39,-27 256,-176 295,-204 71,-49 180,-121 185,-121 10,0 4,37 -9,55 -51,74 -113,231 -103,259 8,20 56,21 84,1 12,-9 53,-28 90,-44 37,-16 110,-47 162,-70 52,-23 115,-51 140,-62 25,-11 60,-26 76,-34 157,-73 195,-86 195,-69 0,3 -15,20 -32,38 -68,67 -176,193 -191,222 -8,16 -25,61 -37,98 -28,86 -18,99 40,57 24,-17 49,-31 56,-31 7,0 25,-6 41,-14 15,-8 48,-23 73,-33 25,-9 51,-23 58,-30 7,-7 18,-13 23,-13 6,0 25,-11 42,-24 18,-13 75,-41 127,-61 52,-20 105,-40 118,-46 25,-10 82,-12 82,-3 0,3 -26,37 -57,76 -75,91 -146,197 -184,274 -25,53 -28,65 -18,87 24,54 69,53 214,-3 44,-17 98,-38 120,-47 22,-9 54,-22 70,-29 17,-7 44,-16 60,-19 17,-4 55,-15 85,-25 61,-19 164,-40 199,-40 33,0 81,28 81,48 0,37 -34,73 -274,281 -53,46 -96,90 -96,98 0,15 74,13 250,-7 52,-6 131,-15 175,-20 44,-4 96,-13 115,-19 19,-6 57,-11 83,-11 40,0 54,5 78,29 31,32 36,49 17,56 -7,2 -44,13 -83,25 -38,11 -99,36 -135,55 -35,19 -68,35 -73,35 -34,0 -302,140 -422,220 -154,103 -170,114 -173,122 -2,5 -20,20 -40,33 -21,14 -93,80 -161,147 -101,100 -126,120 -140,111 -21,-13 -61,-82 -61,-106 0,-18 -41,-82 -68,-104 -24,-21 3,-22 47,-1 31,14 54,18 78,13 61,-11 80,-26 109,-84 15,-31 40,-75 56,-98 21,-32 28,-53 28,-91 0,-70 -14,-79 -93,-64 -175,35 -253,64 -281,106 -18,29 -21,82 -6,122 14,35 8,39 -21,15 -163,-137 -368,-276 -539,-364 -74,-38 -140,-73 -145,-77 -6,-5 -38,-22 -71,-39 -69,-34 -150,-43 -179,-20 -66,55 -65,51 -65,156 0,54 5,136 10,181 9,69 8,87 -4,110 -8,15 -20,39 -27,55 -6,15 -14,27 -19,27 -4,0 -14,15 -21,33 -10,23 -14,84 -14,227 0,226 1,229 90,300 152,122 155,126 129,175 -13,24 -35,41 -86,64 -60,27 -78,31 -156,30 -48,0 -96,-4 -107,-9 z m -1192,-784 c 45,-34 125,-115 140,-143 13,-22 -9,-65 -57,-112 -43,-42 -64,-49 -241,-80 -22,-4 -50,-13 -62,-19 -28,-15 -66,-15 -81,0 -20,20 -15,102 8,123 11,10 20,22 20,27 0,5 9,18 20,30 11,12 32,40 47,62 49,72 124,142 155,145 3,1 27,-14 51,-33 z m 2987,-177 c 123,-46 250,-135 250,-175 0,-12 -4,-26 -10,-29 -5,-3 -10,-14 -10,-24 0,-10 -7,-24 -15,-31 -16,-14 -60,-5 -132,26 -17,8 -37,14 -45,14 -26,0 -95,68 -117,115 -23,50 -26,77 -11,106 13,24 22,24 90,-2 z m -3352,-51 c 5,-55 -45,-126 -117,-168 -138,-82 -199,-108 -265,-115 -97,-11 -117,14 -77,93 46,90 310,235 416,229 38,-2 40,-3 43,-39 z m 2645,-71 c 52,-19 57,-26 64,-89 8,-82 -4,-98 -75,-98 -51,0 -62,4 -85,28 -15,15 -30,42 -33,60 -6,28 -2,37 34,72 45,45 43,45 95,27 z m -1884,-56 c 30,-42 28,-94 -6,-127 -54,-51 -120,-67 -161,-38 -52,36 -6,169 65,187 52,13 82,7 102,-22 z m 2185,9 c 43,-11 88,-20 100,-20 12,0 31,-7 42,-15 10,-8 31,-15 46,-15 15,0 29,-4 33,-9 3,-5 20,-13 37,-16 40,-9 131,-58 179,-96 20,-16 42,-29 48,-29 5,0 16,-10 22,-22 6,-12 31,-46 55,-75 24,-30 44,-57 44,-62 0,-10 -39,-63 -55,-73 -19,-14 -208,-8 -235,7 -14,8 -37,14 -52,15 -15,0 -30,5 -33,10 -3,6 -15,10 -26,10 -39,0 -185,79 -264,143 -71,57 -84,72 -108,131 -31,77 -32,84 -11,114 20,28 70,29 178,2 z m -2466,-74 c 4,-67 -45,-169 -102,-212 -108,-80 -196,-111 -356,-125 -52,-4 -111,-13 -130,-18 -49,-15 -84,-14 -125,6 -47,22 -47,59 -2,116 111,141 186,181 452,237 50,11 102,20 116,20 14,0 34,7 45,15 11,9 35,14 59,12 l 40,-2 z m 1863,-141 c 8,-83 0,-95 -62,-95 -79,0 -89,9 -89,85 0,41 4,65 13,69 6,2 39,4 72,3 l 60,-2 z m 204,35 c 6,-4 26,-11 45,-15 20,-4 54,-25 80,-49 25,-23 79,-71 120,-106 147,-127 200,-194 200,-251 0,-45 -12,-55 -70,-64 -38,-5 -60,0 -140,32 -169,68 -290,148 -290,191 0,7 -18,51 -40,98 -48,101 -50,134 -13,163 20,17 34,20 62,15 20,-4 41,-10 46,-14 z m -1735,0 c 10,-5 28,-30 40,-55 35,-72 16,-158 -47,-216 -33,-31 -193,-139 -206,-139 -5,0 -23,-6 -40,-14 -33,-13 -111,-35 -158,-43 -26,-5 -88,20 -101,41 -16,24 -6,54 40,120 30,45 64,81 95,100 27,17 74,54 106,82 32,28 76,59 99,69 23,11 42,22 42,27 0,4 10,8 23,8 12,1 36,7 52,15 38,17 33,17 55,5 z m 244,-62 c -6,-32 -12,-38 -50,-53 -51,-19 -74,-10 -74,30 0,26 22,48 70,68 46,19 62,6 54,-45 z m 261,-84 c 0,-22 -5,-30 -21,-32 -11,-2 -26,4 -33,12 -10,12 -8,19 9,36 27,27 45,21 45,-16 z m 838,-10 c 29,-10 68,-29 87,-43 42,-31 53,-38 116,-73 27,-14 66,-46 87,-71 35,-41 54,-72 119,-195 l 23,-44 -24,-19 c -17,-14 -39,-19 -82,-19 -55,0 -65,4 -136,53 -129,87 -253,215 -318,324 -18,31 -18,34 -2,68 20,41 46,45 130,19 z m -994,-63 c 15,-15 18,-29 14,-67 -4,-44 -10,-55 -67,-109 -40,-39 -89,-73 -141,-99 -44,-21 -91,-47 -104,-57 -30,-24 -106,-26 -115,-4 -11,28 6,75 41,112 19,20 46,54 60,76 39,61 64,83 162,138 57,33 123,37 150,10 z m 777,-55 c 78,-81 108,-148 121,-270 6,-56 -9,-76 -59,-76 -71,0 -145,55 -188,140 -12,25 -33,59 -46,77 -30,39 -30,70 -2,127 23,47 32,53 87,55 30,1 43,-7 87,-53 z m -82,-1827 c 15,-12 42,-51 61,-88 29,-59 34,-79 38,-162 5,-110 -1,-133 -57,-215 -52,-78 -127,-131 -163,-115 -41,19 -47,52 -51,298 l -4,233 36,35 c 44,42 97,48 140,14 z m -358,-73 34,-34 -2,-224 -3,-223 -56,-3 c -54,-3 -57,-2 -88,35 -17,21 -37,45 -45,53 -37,43 -58,219 -32,275 9,18 16,35 16,38 0,9 95,105 110,110 26,10 31,8 66,-27 z m 312,-1010 c 41,-36 52,-70 52,-154 0,-71 -3,-83 -29,-119 -42,-58 -104,-67 -154,-24 -33,28 -47,79 -46,165 1,100 18,136 75,153 46,13 70,9 102,-21 z m -250,-80 c 47,-70 45,-116 -8,-167 -22,-22 -45,-39 -51,-39 -17,0 -80,70 -95,105 -13,33 -8,122 9,143 7,8 28,12 61,10 49,-3 52,-5 84,-52 z m 77,-381 c 0,-16 -7,-20 -30,-20 -24,0 -31,5 -33,23 -3,21 0,23 30,20 25,-2 33,-8 33,-23 z m -39,-272 c 11,-16 21,-39 24,-53 9,-43 43,-38 64,10 34,79 69,90 117,38 34,-38 37,-74 13,-150 -29,-86 -105,-114 -159,-58 -16,17 -32,30 -37,30 -4,0 -14,-13 -23,-30 -13,-24 -22,-30 -50,-30 -32,0 -36,4 -70,72 -39,79 -44,121 -18,158 24,35 33,40 79,40 34,0 45,-5 60,-27 z"
       id="path149" />
    <path
       d="m 2390,7823 c -8,-3 -28,-11 -45,-18 -56,-23 -135,-52 -257,-94 -85,-29 -99,-45 -72,-86 18,-28 26,-27 101,6 23,11 47,19 53,19 5,0 18,4 28,9 50,25 111,51 121,51 33,0 0,-33 -98,-98 -135,-91 -142,-98 -135,-144 8,-47 19,-49 163,-36 64,6 129,8 144,4 28,-7 36,-24 15,-30 -7,-2 -67,-21 -133,-41 -66,-20 -126,-39 -132,-41 -19,-5 -16,-54 3,-61 9,-3 25,-1 35,5 10,7 25,12 33,12 16,0 80,19 223,66 55,19 108,34 117,34 20,0 32,48 17,71 -6,10 -11,28 -11,38 0,11 -5,23 -12,27 -7,4 -76,7 -154,5 -79,-1 -144,1 -148,7 -6,9 46,52 64,52 6,0 13,7 16,15 4,8 12,15 19,15 6,0 21,8 33,18 12,10 41,31 67,47 43,28 45,31 39,65 -14,78 -42,102 -94,83 z"
       id="path151" />
    <path
       d="m 11195,7798 c -19,-52 -12,-62 68,-100 83,-41 84,-42 65,-116 -23,-93 -44,-106 -131,-76 -61,21 -101,16 -105,-13 -4,-25 16,-37 118,-72 36,-13 74,-26 85,-31 138,-53 194,-72 215,-74 23,-1 25,3 25,37 v 39 l -83,33 c -46,18 -85,35 -88,38 -3,3 2,27 10,53 8,27 17,62 21,77 3,15 13,31 21,34 14,5 104,-21 187,-52 13,-6 21,1 33,31 15,35 15,39 -2,51 -10,7 -24,13 -31,13 -7,0 -29,7 -50,16 -73,32 -98,42 -138,54 -52,15 -145,49 -167,61 -25,13 -48,11 -53,-3 z"
       id="path153" />
    <path
       d="m 2430,7181 c -107,-54 -196,-104 -198,-110 -3,-9 126,-285 144,-310 6,-8 55,10 60,23 3,7 -20,64 -51,127 -30,63 -55,117 -55,120 0,3 26,16 57,27 53,20 59,20 75,5 10,-9 18,-20 18,-26 0,-22 71,-157 83,-157 20,0 37,22 37,47 0,13 -16,58 -35,99 -19,41 -35,80 -35,88 0,18 30,42 61,49 33,8 43,-3 104,-120 40,-76 53,-93 71,-93 13,0 26,5 29,10 9,14 -144,320 -158,319 -7,0 -100,-45 -207,-98 z"
       id="path155" />
    <path
       d="m 11013,7244 c -38,-40 -93,-143 -93,-173 0,-11 9,-39 19,-63 55,-122 214,-201 308,-154 15,8 43,20 61,27 18,6 39,24 46,38 8,14 23,35 35,45 33,30 30,130 -6,190 -16,25 -34,46 -41,46 -7,0 -24,-12 -37,-26 l -25,-27 20,-32 c 11,-18 20,-50 20,-72 0,-32 -7,-46 -42,-81 -55,-56 -92,-57 -174,-3 -32,21 -70,50 -83,65 -25,26 -25,27 -10,83 11,47 20,61 49,79 45,29 80,64 80,81 0,9 -14,13 -46,13 -41,0 -51,-5 -81,-36 z"
       id="path157" />
    <path
       d="m 2803,6816 c -24,-13 -48,-28 -55,-33 -7,-6 -33,-22 -58,-35 -163,-91 -212,-121 -216,-133 -5,-12 23,-68 73,-148 13,-21 48,-53 78,-72 75,-48 117,-47 219,5 81,42 89,48 131,112 24,36 24,39 11,95 -8,32 -19,70 -24,85 -17,42 -92,148 -105,148 -7,-1 -31,-11 -54,-24 z m 80,-117 c 36,-54 42,-83 26,-122 -18,-42 -80,-104 -113,-113 -14,-3 -29,-10 -32,-15 -15,-25 -134,14 -134,43 0,6 -11,23 -25,40 -25,30 -33,58 -15,58 9,0 46,24 185,117 27,18 56,33 65,33 9,0 29,-18 43,-41 z"
       id="path159" />
    <path
       d="m 10830,6823 c -37,-7 -113,-87 -170,-179 -27,-45 -50,-86 -50,-92 0,-6 20,-21 45,-33 25,-12 45,-26 45,-30 0,-4 9,-11 20,-14 26,-8 219,-122 243,-143 14,-12 22,-13 42,-4 48,22 26,61 -72,126 -24,16 -43,36 -43,45 0,9 14,30 32,46 30,29 36,30 137,33 91,3 109,7 129,25 12,11 22,28 22,38 0,15 -13,17 -117,15 l -118,-1 -6,56 c -4,35 -15,69 -28,88 -23,32 -43,36 -111,24 z m 71,-92 c 17,-17 18,-60 1,-82 -10,-13 -28,-45 -40,-71 -17,-38 -27,-48 -46,-48 -13,0 -29,7 -36,15 -7,8 -19,15 -26,15 -19,0 -38,44 -28,63 15,24 67,80 98,105 27,21 59,22 77,3 z"
       id="path161" />
    <path
       d="m 4364,6378 c -36,-57 -74,-114 -83,-127 -9,-13 -20,-31 -26,-40 -5,-9 -26,-38 -45,-66 -39,-56 -70,-114 -70,-130 0,-12 54,-55 69,-55 8,0 131,173 131,185 0,2 34,54 76,116 114,170 111,162 66,193 -21,14 -41,26 -45,26 -3,0 -36,-46 -73,-102 z"
       id="path163" />
    <path
       d="m 9259,6409 c -52,-39 -115,-87 -141,-106 -32,-23 -48,-42 -48,-56 0,-12 23,-57 50,-100 28,-43 50,-80 50,-82 0,-1 18,-32 40,-66 22,-35 44,-73 49,-84 5,-11 21,-37 35,-58 14,-21 26,-42 26,-47 0,-22 24,-20 61,4 21,15 39,30 39,35 0,9 -66,99 -85,116 -22,20 -46,67 -41,80 2,7 31,32 63,54 32,22 71,52 88,66 l 30,25 -19,35 c -11,19 -23,35 -29,35 -11,0 -62,-36 -97,-67 -14,-13 -33,-26 -42,-29 -10,-3 -18,-9 -18,-14 0,-4 -7,-10 -15,-14 -14,-5 -41,39 -58,94 -8,27 11,46 102,105 58,38 91,65 91,76 0,22 -21,69 -30,69 -4,0 -50,-32 -101,-71 z"
       id="path165" />
    <path
       d="m 3078,6402 c -20,-15 -58,-42 -85,-61 -26,-19 -68,-51 -93,-71 -25,-20 -66,-53 -92,-74 -42,-32 -46,-39 -36,-56 7,-10 22,-23 35,-29 19,-9 29,-5 67,27 24,20 74,62 111,92 37,30 79,65 94,77 43,37 45,39 64,46 21,8 22,43 3,63 -19,19 -25,18 -68,-14 z"
       id="path167" />
    <path
       d="m 10428,6313 c -16,-17 -28,-40 -28,-55 0,-24 83,-175 150,-273 15,-22 30,-49 34,-60 3,-11 19,-36 35,-55 l 29,-35 26,24 c 33,31 32,35 -4,81 -16,21 -30,44 -30,51 0,8 20,41 45,74 25,33 45,62 45,66 0,3 11,11 25,17 20,9 34,8 72,-9 l 48,-20 17,21 c 35,43 19,75 -43,86 -19,4 -40,11 -47,17 -7,5 -29,13 -50,17 -35,7 -93,23 -207,57 -87,26 -88,26 -117,-4 z m 184,-104 c 9,-5 28,-9 42,-9 14,0 27,-4 30,-8 11,-18 -67,-121 -91,-122 -6,0 -15,9 -18,20 -3,11 -11,20 -16,20 -5,0 -9,5 -9,11 0,6 -13,30 -30,53 -16,24 -26,47 -22,50 8,9 90,-2 114,-15 z"
       id="path169" />
    <path
       d="m 4584,6258 c -20,-40 -49,-95 -64,-123 -15,-27 -55,-103 -89,-167 l -61,-117 24,-27 c 30,-36 49,-27 75,33 12,26 25,55 30,63 13,20 71,138 82,168 17,44 29,11 30,-81 0,-51 4,-126 10,-167 5,-41 12,-99 15,-128 6,-46 11,-57 38,-73 17,-10 36,-19 41,-19 10,0 34,44 160,287 35,67 70,132 79,145 22,31 20,54 -6,72 -50,35 -59,26 -155,-178 -39,-83 -63,-114 -81,-102 -4,2 -6,48 -5,103 2,54 -2,152 -8,218 -9,99 -14,124 -31,143 -12,12 -27,22 -35,22 -7,0 -29,-33 -49,-72 z"
       id="path171" />
    <path
       d="m 3145,6174 c -22,-13 -47,-27 -56,-31 -9,-5 -39,-33 -68,-64 -47,-53 -51,-60 -51,-108 0,-28 4,-59 9,-69 5,-9 13,-30 17,-46 6,-18 28,-43 59,-65 47,-33 55,-36 125,-36 64,0 75,2 78,18 7,33 -36,67 -84,67 -68,0 -92,16 -109,73 -8,28 -15,58 -15,68 0,22 100,113 153,140 39,20 40,20 74,2 47,-25 73,-70 73,-126 0,-48 18,-77 48,-77 18,0 42,59 42,104 0,25 -55,116 -69,116 -5,0 -25,14 -46,30 -49,39 -119,40 -180,4 z"
       id="path173" />
    <path
       d="m 8774,6102 c -37,-3 -50,-12 -113,-76 -39,-40 -75,-85 -81,-100 -5,-15 -10,-69 -10,-120 v -92 l 52,-78 c 46,-69 58,-81 119,-112 38,-19 77,-34 88,-34 32,0 164,66 193,97 89,95 102,242 33,372 -7,14 -41,53 -74,85 -57,56 -62,59 -113,60 -29,1 -72,0 -94,-2 z m 111,-102 c 35,-17 48,-32 78,-93 30,-59 37,-85 37,-131 0,-52 -3,-60 -40,-100 -36,-39 -108,-76 -148,-76 -15,0 -59,45 -76,78 -9,17 -29,51 -46,75 -53,78 -35,151 58,235 42,38 77,41 137,12 z"
       id="path175" />
    <path
       d="m 10150,5980 c -41,-39 -96,-87 -122,-108 -26,-20 -47,-41 -48,-46 0,-17 309,-316 327,-316 27,0 246,224 241,247 -7,39 -37,23 -119,-61 -45,-47 -90,-86 -99,-86 -21,0 -90,73 -90,96 0,8 32,46 70,84 70,69 84,95 54,107 -11,4 -40,-18 -93,-71 -42,-42 -83,-76 -91,-76 -15,1 -90,65 -90,77 0,4 39,44 86,90 75,72 85,86 80,108 -4,14 -12,25 -19,25 -6,0 -46,-32 -87,-70 z"
       id="path177" />
    <path
       d="m 5125,5961 c -39,-24 -81,-70 -89,-98 -12,-38 29,-108 87,-152 28,-22 59,-48 67,-58 8,-10 27,-33 43,-51 36,-44 35,-74 -4,-106 -64,-54 -145,-19 -173,74 -24,80 -33,92 -69,88 -31,-3 -32,-5 -35,-51 -2,-28 4,-66 13,-91 14,-35 27,-48 78,-77 59,-32 133,-58 169,-59 9,0 42,23 72,51 56,51 56,51 56,109 0,32 -5,71 -10,86 -6,15 -49,65 -95,111 -91,89 -102,115 -64,149 16,15 24,16 39,6 11,-7 26,-12 33,-12 24,0 65,-54 69,-89 3,-30 7,-35 45,-46 54,-16 63,-7 63,65 0,49 -4,60 -27,82 -26,23 -71,47 -146,77 -41,16 -88,13 -122,-8 z"
       id="path179" />
    <path
       d="m 5567,5798 c -6,-41 5,-53 68,-71 43,-12 50,-18 53,-42 2,-16 -1,-38 -6,-49 -12,-29 -52,-196 -52,-222 0,-11 -4,-24 -9,-30 -5,-5 -16,-36 -24,-69 -19,-75 -10,-105 32,-105 35,0 45,15 55,77 6,40 13,65 51,183 8,25 17,67 21,93 3,26 14,57 24,69 17,21 20,21 76,8 33,-7 65,-18 72,-23 17,-13 28,-1 37,40 5,25 2,34 -17,47 -12,9 -32,16 -43,16 -12,0 -25,4 -30,9 -6,5 -26,14 -45,19 -19,6 -80,26 -135,46 -55,20 -105,36 -111,36 -7,0 -14,-15 -17,-32 z"
       id="path181" />
    <path
       d="m 3635,5789 c -22,-12 -44,-25 -49,-30 -6,-5 -17,-9 -25,-9 -8,0 -22,-6 -30,-14 -9,-8 -76,-44 -148,-81 -73,-37 -133,-71 -133,-76 0,-4 11,-20 23,-35 l 24,-27 46,31 c 25,18 50,32 55,32 5,0 39,-32 77,-70 61,-64 67,-74 62,-103 -3,-18 -8,-39 -11,-47 -3,-8 7,-30 23,-49 l 29,-35 16,32 c 15,29 71,183 82,227 3,11 9,29 14,40 18,43 42,121 47,150 3,22 -2,37 -19,58 -28,33 -32,33 -83,6 z m 19,-107 c 3,-5 -3,-26 -14,-48 -10,-21 -23,-51 -29,-66 -7,-18 -18,-28 -32,-28 -21,0 -79,50 -79,69 0,11 118,81 137,81 6,0 14,-4 17,-8 z"
       id="path183" />
    <path
       d="m 8116,5798 c -18,-10 -80,-29 -161,-49 -22,-6 -44,-14 -49,-20 -6,-5 -20,-9 -32,-9 -13,0 -26,-4 -29,-10 -3,-5 -15,-10 -26,-10 -20,0 -27,-34 -9,-45 6,-3 10,-19 10,-34 0,-16 7,-47 15,-70 8,-23 17,-64 21,-92 4,-27 11,-52 15,-55 5,-3 9,-18 9,-34 0,-16 6,-44 14,-62 8,-18 19,-59 26,-90 15,-74 25,-82 87,-67 65,15 286,89 296,99 5,4 4,23 -1,41 -8,30 -13,34 -38,32 -16,-1 -38,-7 -49,-12 -31,-14 -198,-50 -207,-45 -4,3 -8,16 -8,30 0,14 -6,37 -14,52 -25,50 -2,71 134,124 79,31 90,40 90,74 0,39 -14,50 -43,36 -12,-6 -60,-25 -106,-43 -92,-36 -111,-33 -122,17 -3,16 -12,39 -20,52 -26,42 9,66 118,79 23,3 47,11 54,19 6,8 26,14 45,14 37,0 59,26 47,57 -12,33 -35,40 -67,21 z"
       id="path185" />
    <path
       d="m 6056,5679 c -3,-8 -7,-32 -10,-54 -3,-22 -9,-65 -15,-95 -20,-111 -33,-196 -38,-250 -3,-30 -12,-65 -20,-77 -8,-12 -13,-34 -11,-49 2,-24 9,-29 42,-36 21,-5 41,-6 44,-4 2,3 8,33 13,68 29,190 34,224 59,363 24,144 24,135 4,135 -11,0 -29,3 -41,6 -15,4 -24,1 -27,-7 z"
       id="path187" />
    <path
       d="m 7565,5645 c -16,-7 -68,-16 -115,-20 -107,-9 -160,-29 -160,-60 0,-34 23,-48 72,-42 103,13 92,19 99,-48 3,-33 11,-85 18,-115 6,-30 14,-109 18,-175 l 8,-120 31,-3 c 18,-2 39,4 52,15 21,17 22,21 11,98 -6,44 -14,109 -18,145 -5,36 -13,79 -20,96 -7,17 -11,58 -9,90 l 3,59 55,6 c 81,10 92,16 88,53 -3,30 -5,31 -53,33 -27,1 -63,-4 -80,-12 z"
       id="path189" />
    <path
       d="m 9795,5640 c -75,-34 -143,-118 -130,-160 11,-36 48,-72 92,-91 59,-25 67,-25 146,16 38,19 79,35 92,35 26,0 65,-42 65,-69 0,-42 -103,-101 -140,-81 -29,16 -53,11 -85,-15 -34,-28 -29,-36 31,-53 55,-16 93,-15 144,3 56,20 84,49 116,120 29,68 27,80 -32,144 -31,36 -42,41 -78,41 -22,0 -50,-7 -60,-15 -11,-8 -30,-15 -42,-15 -13,0 -25,-4 -28,-9 -4,-5 -26,-16 -51,-24 -44,-15 -46,-15 -73,8 l -27,23 30,32 c 37,39 81,64 90,50 10,-15 38,-11 63,9 29,25 28,45 -3,59 -36,16 -73,14 -120,-8 z"
       id="path191" />
    <path
       d="m 6263,5632 c -12,-2 -24,-10 -27,-18 -15,-38 40,-74 110,-74 18,0 35,-3 37,-7 3,-5 0,-69 -5,-143 -5,-74 -10,-144 -10,-155 0,-11 -5,-53 -10,-92 -8,-54 -8,-76 1,-87 13,-16 55,-26 69,-17 5,3 13,42 16,86 12,163 16,202 28,298 12,105 23,126 58,107 11,-6 42,-10 68,-8 46,3 47,3 47,38 0,32 -3,35 -40,43 -54,10 -314,33 -342,29 z"
       id="path193" />
    <path
       d="m 6775,5590 c -4,-6 -6,-108 -5,-226 0,-167 4,-223 15,-244 17,-33 89,-98 123,-111 34,-13 148,8 199,37 70,41 73,52 73,312 0,200 -2,231 -16,236 -26,10 -72,7 -80,-5 -10,-17 -6,-163 8,-241 8,-51 8,-78 0,-105 -6,-21 -16,-55 -23,-76 -9,-30 -20,-43 -55,-59 -35,-17 -48,-20 -66,-11 -13,6 -30,14 -39,16 -37,12 -49,63 -49,212 0,143 -14,254 -34,267 -16,11 -44,10 -51,-2 z"
       id="path195" />
    <path
       d="m 3938,5499 c -18,-23 -48,-58 -66,-79 -18,-21 -43,-52 -55,-68 -12,-17 -44,-59 -70,-94 l -48,-63 30,-25 c 16,-14 67,-58 114,-97 46,-40 92,-73 101,-73 9,0 22,12 28,26 11,23 10,28 -10,43 -84,63 -118,89 -139,106 l -25,21 67,84 c 36,47 88,113 116,148 27,34 49,67 49,72 0,13 -30,40 -45,40 -8,0 -29,-19 -47,-41 z"
       id="path197" />
    <path
       d="m 9485,5397 c -17,-12 -72,-49 -123,-82 -51,-33 -95,-68 -98,-77 -3,-11 6,-33 24,-56 16,-20 57,-80 92,-132 89,-133 119,-170 138,-170 16,0 120,65 210,130 35,26 43,37 40,58 -5,43 -33,38 -130,-28 -50,-33 -98,-60 -106,-58 -8,2 -28,22 -45,45 l -31,43 24,25 c 13,14 28,25 33,25 15,0 147,92 147,102 0,21 -22,48 -38,48 -10,0 -45,-20 -78,-44 -33,-24 -70,-47 -82,-50 -12,-4 -22,-12 -22,-17 0,-16 -36,-10 -53,9 -10,10 -17,30 -17,43 0,25 21,44 136,124 44,30 61,56 49,75 -10,16 -37,10 -70,-13 z"
       id="path199" />
    <path
       d="m 4505,5152 c -45,-5 -81,-45 -89,-97 -8,-59 -1,-72 70,-148 77,-80 83,-98 50,-132 -24,-24 -26,-24 -68,-9 -60,21 -98,60 -98,100 0,26 -7,36 -35,54 -19,12 -39,19 -45,15 -5,-3 -10,-28 -10,-54 0,-44 4,-53 56,-109 31,-34 68,-65 82,-69 15,-3 37,-13 49,-20 45,-30 121,4 153,67 37,72 24,105 -78,205 -34,33 -62,66 -62,73 0,22 39,52 68,52 37,0 92,-56 92,-93 0,-20 7,-30 26,-37 39,-15 54,2 50,58 -3,41 -9,52 -54,93 -52,48 -85,59 -157,51 z"
       id="path201" />
    <path
       d="m 8925,5064 c -72,-36 -131,-67 -132,-68 -1,0 44,-93 101,-206 61,-124 108,-206 118,-208 8,-2 29,8 44,22 l 29,24 -38,71 c -47,87 -46,111 7,129 37,12 42,11 128,-33 49,-25 98,-45 109,-45 48,0 80,42 41,54 -9,3 -41,22 -70,41 -30,19 -62,35 -72,35 -29,0 -34,20 -11,41 28,26 29,101 1,146 -21,35 -66,63 -102,63 -13,0 -82,-30 -153,-66 z m 179,-28 c 42,-35 31,-62 -53,-124 -38,-29 -73,-52 -78,-52 -12,1 -63,89 -63,110 0,13 9,22 28,26 15,4 47,20 72,35 54,34 57,35 94,5 z"
       id="path203" />
    <path
       d="m 4915,4919 c -51,-27 -89,-62 -126,-118 -25,-38 -29,-54 -29,-110 0,-48 6,-77 21,-106 23,-43 67,-95 82,-95 5,0 20,-9 34,-20 50,-39 186,-19 217,32 8,13 5,23 -14,43 -27,29 -51,32 -86,9 -17,-12 -38,-15 -70,-11 -64,7 -103,52 -104,121 0,41 5,55 35,90 79,94 71,89 139,84 81,-7 106,-20 106,-57 0,-34 21,-54 52,-49 50,7 18,122 -43,156 -17,9 -40,25 -51,35 -30,24 -112,23 -163,-4 z"
       id="path205" />
    <path
       d="m 8290,4791 c -57,-12 -90,-39 -90,-74 0,-30 44,-107 61,-107 15,0 10,-49 -7,-75 -9,-14 -17,-46 -17,-73 -2,-39 3,-56 25,-84 29,-38 58,-48 135,-48 40,0 50,5 99,52 l 55,52 29,-18 c 36,-20 66,-9 76,29 7,29 -1,45 -25,45 -28,0 -41,21 -41,66 0,57 -40,74 -79,33 -23,-25 -54,-19 -77,16 -14,21 -13,26 11,60 14,21 25,46 25,55 0,24 -45,70 -68,70 -11,0 -32,2 -48,4 -16,3 -45,1 -64,-3 z m 74,-47 c 27,-70 -37,-116 -73,-52 -14,24 -14,28 3,47 23,25 61,28 70,5 z m 25,-218 c 7,-8 27,-21 46,-30 27,-13 32,-20 28,-39 -10,-40 -33,-57 -79,-57 -49,0 -64,17 -64,70 0,60 39,92 69,56 z"
       id="path207" />
    <path
       d="m 5346,4768 c -9,-12 -16,-33 -16,-45 0,-13 -4,-31 -9,-41 -5,-9 -19,-51 -31,-92 -12,-41 -28,-88 -35,-105 -7,-16 -18,-52 -25,-78 -15,-55 -8,-67 43,-67 31,0 32,3 68,125 13,44 29,91 36,105 7,14 13,34 13,46 0,11 4,24 9,30 11,12 32,124 25,135 -11,18 -63,9 -78,-13 z"
       id="path209" />
    <path
       d="m 5546,4719 c -2,-8 -7,-25 -9,-39 -3,-14 -15,-61 -27,-105 -12,-44 -25,-93 -27,-110 -3,-16 -9,-34 -13,-40 -5,-5 -11,-28 -15,-50 -4,-22 -12,-48 -16,-57 -7,-13 -2,-22 20,-37 29,-21 44,-25 181,-54 36,-7 75,-19 88,-26 25,-13 62,-6 62,12 0,7 3,22 6,33 6,23 -7,29 -87,39 -23,3 -46,8 -51,12 -6,3 -33,8 -62,12 l -51,6 3,65 c 4,73 10,83 45,83 31,0 132,-29 172,-49 27,-14 30,-14 42,2 16,22 16,39 1,51 -15,11 -159,53 -182,53 -21,0 -36,38 -29,74 8,40 45,55 83,33 15,-9 38,-17 50,-17 12,0 43,-7 70,-16 64,-21 83,-16 91,23 8,39 -2,49 -56,56 -67,10 -227,41 -262,52 -15,5 -24,3 -27,-6 z"
       id="path211" />
    <path
       d="m 7685,4645 c -22,-8 -48,-15 -57,-15 -56,0 -118,-61 -118,-114 0,-34 44,-122 65,-130 9,-3 50,-6 91,-6 75,0 117,-13 143,-44 19,-23 -11,-72 -60,-97 -40,-20 -41,-20 -77,-2 -21,10 -49,27 -64,37 -30,20 -78,15 -78,-7 0,-7 23,-34 51,-60 48,-44 55,-47 105,-47 80,0 167,49 200,112 36,70 -7,158 -78,158 -19,0 -40,6 -46,13 -7,6 -49,14 -95,17 l -82,5 v 35 c 0,31 4,37 45,57 59,29 82,28 110,-2 43,-46 116,-24 89,27 -12,25 -57,68 -70,68 -4,0 -13,2 -21,5 -7,2 -31,-2 -53,-10 z"
       id="path213" />
    <path
       d="m 6022,4621 c -14,-9 -31,-84 -32,-141 0,-25 -7,-56 -15,-70 -8,-15 -14,-53 -15,-92 0,-37 -4,-70 -10,-73 -17,-10 -12,-72 6,-79 52,-20 76,4 86,88 16,141 21,166 33,166 18,0 31,-18 55,-80 11,-30 27,-68 35,-85 7,-16 25,-56 39,-87 24,-56 26,-58 63,-58 h 39 l 16,68 c 10,37 20,108 23,157 4,50 13,108 22,131 8,22 13,56 11,75 -3,32 -6,34 -38,34 -28,0 -36,-4 -41,-25 -9,-32 -30,-152 -36,-210 -8,-69 -20,-70 -48,-4 -15,32 -30,66 -35,75 -4,8 -23,51 -40,95 -18,43 -37,84 -42,91 -13,16 -63,32 -76,24 z"
       id="path215" />
    <path
       d="m 7145,4569 c -133,-13 -129,-11 -120,-62 4,-23 10,-125 14,-227 l 6,-185 60,1 c 33,0 117,4 187,9 l 127,8 -6,31 c -7,36 -22,58 -34,51 -11,-7 -221,-14 -236,-8 -17,7 -17,84 0,107 10,13 35,19 117,24 l 105,7 3,34 3,33 -48,-6 c -196,-25 -213,-21 -213,49 0,60 20,75 106,76 38,0 87,3 109,7 34,6 40,11 40,32 0,24 -3,25 -60,26 -33,1 -105,-2 -160,-7 z"
       id="path217" />
    <path
       d="m 6635,4546 c -39,-9 -55,-20 -77,-50 -15,-22 -28,-44 -28,-50 0,-7 -9,-29 -20,-51 -35,-69 -8,-225 42,-241 10,-3 32,-17 50,-32 24,-21 44,-27 94,-30 84,-6 102,0 152,47 48,45 52,63 20,85 -28,20 -68,21 -68,2 0,-7 -9,-25 -21,-40 -26,-33 -74,-35 -140,-5 -54,25 -59,36 -59,127 0,73 27,138 64,152 13,5 27,14 31,19 3,6 24,11 45,11 30,0 43,-6 59,-26 12,-15 21,-33 21,-40 0,-22 46,-21 69,1 12,12 12,19 -2,47 -21,44 -43,62 -93,76 -49,14 -72,14 -139,-2 z"
       id="path219" />
    <path
       d="m 1095,4676 c -71,-24 -109,-44 -160,-85 -27,-22 -62,-50 -77,-61 -16,-12 -28,-25 -28,-30 0,-4 -18,-39 -40,-76 -22,-38 -45,-87 -51,-109 -5,-22 -14,-49 -19,-60 -35,-78 -70,-624 -86,-1335 l -4,-195 29,-20 c 37,-26 161,-120 321,-245 178,-139 256,-195 438,-317 117,-79 215,-143 217,-143 2,0 32,-19 67,-42 82,-55 82,-55 213,-133 61,-37 117,-70 125,-76 8,-5 35,-20 60,-34 25,-14 52,-30 60,-35 39,-26 221,-130 227,-130 3,0 14,-6 22,-14 9,-8 93,-53 186,-101 94,-48 222,-115 285,-148 185,-98 361,-183 415,-202 28,-9 59,-21 70,-26 11,-5 49,-18 84,-30 35,-12 75,-28 90,-35 14,-8 35,-14 47,-14 11,0 24,-3 27,-6 11,-12 121,-54 139,-54 9,0 20,-5 23,-10 3,-6 14,-10 23,-10 9,0 28,-6 42,-13 14,-7 57,-23 95,-36 39,-12 84,-28 100,-36 17,-7 48,-20 70,-28 22,-8 76,-29 120,-45 44,-17 139,-51 210,-77 143,-52 200,-73 230,-86 51,-23 151,-49 185,-49 21,0 57,-7 80,-15 23,-8 62,-15 86,-15 23,0 45,-4 48,-9 3,-4 36,-11 73,-15 38,-3 93,-10 123,-16 30,-5 80,-12 110,-16 30,-3 64,-9 75,-14 18,-8 137,-26 315,-49 30,-3 61,-10 69,-15 8,-5 44,-13 80,-17 186,-22 292,-38 303,-46 19,-11 132,-25 213,-25 134,1 440,20 480,30 22,6 76,11 120,11 44,0 175,5 290,11 116,6 296,14 400,19 105,5 203,14 218,20 16,6 40,11 55,11 15,0 70,11 122,24 52,14 142,36 200,51 121,30 204,53 240,65 14,5 70,18 125,31 55,12 105,25 110,29 6,4 55,17 110,29 55,12 109,26 120,31 11,5 34,11 50,13 17,3 57,12 90,22 33,9 78,21 100,26 22,6 54,15 70,21 32,11 55,16 175,43 41,9 79,20 84,26 6,5 19,9 30,9 20,0 241,89 373,151 35,16 65,29 69,29 6,0 67,26 95,40 8,4 76,33 150,65 133,55 230,99 259,115 8,5 101,52 205,106 105,53 225,117 269,140 43,24 84,44 92,44 7,0 15,4 18,9 5,8 51,32 106,55 8,3 35,18 60,32 25,14 99,54 165,88 129,68 235,124 330,176 33,18 116,62 185,98 69,35 137,74 152,86 39,30 81,61 278,206 96,71 181,134 187,140 7,6 32,24 55,41 24,16 63,45 88,65 25,19 57,42 72,52 15,9 29,26 30,37 2,11 0,133 -4,270 -43,1570 -38,1452 -69,1500 -14,22 -37,65 -52,95 -37,79 -151,183 -233,214 -84,31 -133,38 -250,34 -116,-3 -121,-4 -197,-43 -66,-34 -89,-53 -156,-132 -74,-85 -88,-112 -119,-213 -19,-62 -14,-236 9,-335 11,-50 22,-99 25,-110 3,-16 -12,-31 -71,-70 -41,-27 -103,-69 -137,-93 -35,-23 -81,-51 -103,-63 -110,-56 -327,-184 -405,-239 -53,-36 -248,-130 -272,-130 -9,0 -21,-7 -28,-15 -6,-8 -22,-17 -33,-21 -12,-3 -47,-17 -77,-31 -30,-13 -68,-30 -85,-37 -16,-7 -48,-21 -70,-30 -56,-25 -93,-41 -145,-61 -25,-10 -67,-28 -95,-40 -58,-26 -144,-61 -195,-80 -19,-7 -60,-23 -90,-36 -72,-29 -138,-54 -230,-86 -41,-14 -79,-29 -85,-33 -5,-4 -41,-18 -80,-30 -38,-13 -74,-26 -80,-30 -5,-4 -50,-17 -100,-30 -49,-12 -94,-26 -100,-30 -5,-4 -23,-10 -40,-13 -42,-8 -146,-36 -170,-46 -11,-5 -56,-19 -100,-31 -83,-22 -119,-34 -170,-56 -58,-24 -265,-104 -271,-104 -3,0 -20,-6 -37,-14 -46,-19 -146,-58 -237,-91 -63,-23 -146,-45 -169,-45 -12,0 -31,-5 -42,-11 -11,-6 -46,-17 -77,-26 -96,-26 -165,-44 -202,-53 -71,-17 -266,-72 -305,-85 -39,-14 -121,-43 -330,-119 -55,-20 -134,-56 -175,-79 -98,-55 -134,-71 -200,-91 -34,-10 -63,-27 -76,-43 l -21,-27 -97,57 c -53,31 -99,57 -102,57 -2,0 -21,11 -42,24 -21,13 -75,36 -120,51 -45,15 -85,31 -88,36 -3,5 -14,9 -25,9 -10,0 -27,4 -37,10 -9,5 -42,20 -72,34 -30,13 -93,42 -140,63 -132,61 -365,147 -525,193 -16,5 -68,23 -115,40 -47,17 -119,42 -160,56 -41,14 -84,29 -95,34 -38,16 -230,78 -295,95 -36,9 -80,23 -98,31 -18,8 -43,14 -55,14 -13,0 -27,4 -32,9 -6,4 -38,14 -73,21 -34,7 -65,17 -68,21 -3,5 -18,9 -33,9 -15,0 -31,3 -35,7 -4,4 -33,15 -64,24 -102,31 -284,97 -295,108 -6,6 -20,11 -31,11 -19,0 -231,76 -346,124 -149,63 -425,178 -505,211 -49,21 -128,55 -173,76 -46,22 -86,39 -89,39 -3,0 -34,14 -70,30 -35,17 -66,30 -68,30 -1,0 -60,27 -129,60 -70,33 -131,60 -136,60 -6,0 -10,4 -10,9 0,5 -10,13 -22,16 -28,8 -94,41 -129,63 -25,16 -190,119 -234,145 -10,7 -47,32 -82,57 -34,25 -101,72 -149,104 l -87,59 6,61 c 3,34 13,81 21,105 11,29 16,79 16,149 0,99 -2,107 -30,154 -16,26 -30,51 -30,54 0,3 -24,42 -54,87 -29,45 -60,96 -69,112 -28,54 -70,83 -176,120 -56,19 -307,20 -366,1 z m 248,-182 c 23,-16 59,-36 79,-46 87,-40 142,-89 173,-154 21,-45 25,-67 25,-149 0,-141 -8,-141 -158,6 -53,52 -142,131 -197,174 -109,87 -155,130 -155,145 0,10 48,39 85,52 38,14 104,1 148,-28 z m 11050,-34 c 24,0 21,-27 -4,-35 -24,-8 -255,-235 -288,-285 -29,-43 -154,-111 -172,-93 -7,7 -10,43 -8,100 4,80 7,94 34,134 17,24 32,53 35,63 6,20 69,58 167,100 50,22 69,25 138,21 44,-3 88,-5 98,-5 z M 1285,4009 c 336,-337 358,-356 563,-480 77,-47 78,-48 193,-121 41,-26 112,-71 159,-99 47,-29 123,-77 170,-107 47,-31 137,-77 200,-104 63,-27 139,-60 168,-74 28,-13 80,-36 115,-50 34,-15 95,-42 135,-60 41,-19 76,-34 79,-34 3,0 19,-6 36,-14 128,-58 293,-129 352,-151 39,-15 108,-42 155,-60 47,-18 117,-45 155,-60 39,-14 79,-30 90,-35 11,-5 63,-26 115,-45 52,-20 109,-43 127,-51 17,-8 36,-14 42,-14 6,0 27,-7 48,-16 21,-9 47,-21 58,-25 29,-12 409,-135 560,-180 39,-12 79,-25 90,-29 11,-5 54,-18 95,-30 41,-12 83,-26 93,-31 10,-6 37,-14 60,-18 23,-5 67,-19 97,-31 59,-23 150,-55 325,-115 61,-20 115,-40 120,-44 6,-4 44,-17 85,-30 41,-13 87,-30 102,-37 14,-8 33,-14 41,-14 9,0 28,-6 44,-14 15,-8 39,-19 53,-24 14,-6 47,-20 74,-31 27,-12 52,-21 57,-21 4,0 36,-13 71,-29 35,-16 91,-39 126,-51 34,-13 65,-27 68,-31 3,-5 14,-9 25,-9 13,0 68,-46 143,-120 68,-66 126,-120 129,-120 4,0 19,24 33,54 14,29 37,64 52,78 37,34 164,110 237,143 33,15 78,35 100,45 22,10 67,30 100,45 33,15 83,38 110,52 76,38 215,93 236,93 10,0 33,6 51,14 18,8 59,21 91,30 69,19 150,42 237,68 36,10 83,24 105,29 22,6 51,16 65,21 14,6 68,21 120,35 52,13 129,35 170,48 41,14 129,40 195,60 66,19 134,39 150,44 17,5 45,12 62,16 18,4 35,11 38,16 4,5 14,9 23,9 25,0 488,145 667,209 44,16 148,50 230,76 83,27 178,59 212,72 34,12 65,23 69,23 11,0 172,77 674,322 249,122 290,143 415,210 39,21 81,42 94,48 13,6 35,19 50,29 14,10 84,49 156,85 71,37 134,71 140,75 5,4 69,39 140,76 72,37 137,74 146,81 8,8 21,14 28,14 7,0 163,151 348,336 188,188 341,333 348,330 9,-3 14,-69 19,-263 4,-142 11,-422 17,-623 6,-201 11,-446 12,-545 l 2,-180 -107,-70 c -59,-38 -175,-113 -258,-165 -82,-52 -160,-102 -173,-110 -13,-8 -45,-28 -71,-45 -27,-16 -83,-53 -125,-80 -68,-45 -174,-113 -219,-140 -10,-5 -55,-35 -102,-66 -47,-31 -119,-77 -160,-103 -41,-26 -94,-61 -118,-77 -23,-16 -45,-29 -48,-29 -3,0 -24,-13 -47,-29 -23,-15 -64,-38 -92,-51 -63,-28 -162,-74 -240,-110 -33,-15 -76,-35 -95,-43 -39,-17 -144,-65 -235,-107 -33,-15 -100,-46 -150,-69 -49,-23 -108,-50 -130,-61 -22,-10 -71,-33 -110,-50 -38,-18 -92,-43 -120,-55 -27,-13 -72,-33 -100,-45 -27,-12 -86,-39 -130,-60 -87,-41 -131,-58 -185,-71 -19,-4 -71,-18 -115,-29 -44,-12 -98,-25 -121,-30 -22,-5 -51,-13 -65,-19 -13,-5 -64,-19 -114,-31 -49,-12 -99,-26 -110,-30 -11,-5 -33,-11 -50,-14 -30,-5 -66,-14 -295,-75 -63,-17 -137,-36 -163,-41 -27,-5 -53,-13 -59,-16 -10,-7 -213,-59 -288,-75 -65,-13 -247,-32 -570,-57 -63,-5 -135,-14 -160,-20 -25,-6 -94,-14 -155,-17 -173,-10 -202,-12 -330,-24 -66,-6 -133,-16 -149,-21 -40,-14 -238,-13 -273,1 -25,11 -99,21 -243,34 -165,15 -229,23 -240,30 -6,4 -50,11 -96,16 -158,17 -249,28 -324,39 -72,11 -157,22 -305,38 -86,10 -225,38 -285,57 -25,7 -79,21 -120,30 -41,9 -86,21 -100,27 -14,6 -41,14 -60,19 -19,4 -73,17 -120,29 -47,12 -101,25 -120,30 -19,4 -62,15 -95,24 -33,9 -78,22 -100,27 -22,6 -62,17 -90,24 -27,8 -77,21 -110,30 -33,9 -83,22 -111,30 -28,8 -60,15 -71,15 -11,0 -23,3 -27,7 -4,4 -31,13 -59,19 -91,20 -163,42 -203,62 -326,166 -575,293 -784,400 -140,72 -329,168 -420,213 -91,45 -193,101 -228,125 -35,24 -65,44 -67,44 -2,0 -33,21 -67,46 -35,25 -79,55 -98,67 -19,12 -91,60 -160,106 -190,128 -759,511 -901,606 -123,82 -146,105 -132,127 3,6 10,167 14,357 25,1067 28,1121 58,1121 3,0 155,-149 336,-331 z"
       id="path221" />
    <path
       d="m 2394,2715 c -4,-15 -17,-48 -29,-73 -12,-26 -26,-58 -29,-72 -4,-14 -17,-45 -28,-70 -70,-154 -71,-160 -23,-160 19,0 35,5 35,11 0,6 6,25 14,42 7,18 18,44 24,60 10,22 18,27 47,27 19,0 45,-5 58,-12 12,-6 29,-14 37,-18 24,-11 23,-35 -5,-94 -28,-60 -30,-99 -4,-104 10,-2 21,9 29,30 13,34 75,187 90,223 5,11 18,42 29,69 12,26 18,52 15,57 -13,22 -35,4 -66,-53 -37,-70 -47,-74 -123,-45 -57,21 -62,42 -30,113 29,63 26,86 -13,92 -16,2 -23,-3 -28,-23 z"
       id="path223" />
    <path
       d="m 2746,2542 c -10,-26 -27,-65 -36,-87 -42,-93 -50,-114 -50,-123 0,-6 -8,-25 -17,-44 -29,-58 -33,-68 -33,-77 0,-6 21,-21 48,-33 26,-13 75,-39 110,-57 l 63,-34 21,20 c 30,31 18,49 -63,88 -101,49 -100,48 -81,96 22,52 45,56 120,25 80,-34 92,-33 92,3 0,22 -6,31 -22,36 -106,32 -143,69 -119,121 15,33 41,31 123,-11 38,-20 73,-33 79,-30 5,4 9,18 9,33 0,24 -10,32 -98,75 -53,26 -104,47 -112,47 -9,0 -23,-21 -34,-48 z"
       id="path225" />
    <path
       d="m 10633,2460 c -41,-24 -53,-48 -53,-103 0,-32 6,-49 23,-64 38,-35 63,-43 141,-43 63,0 80,-4 96,-20 26,-26 25,-53 -4,-84 -29,-33 -86,-35 -123,-6 -59,46 -83,6 -27,-45 34,-31 44,-35 94,-35 31,0 61,5 67,11 6,6 21,16 33,23 23,12 50,73 50,117 0,16 -13,38 -35,59 -35,33 -39,35 -133,40 -108,6 -122,11 -122,45 0,48 96,88 118,49 12,-21 61,-15 76,9 9,15 6,23 -17,43 -37,32 -135,34 -184,4 z"
       id="path227" />
    <path
       d="m 3079,2302 c -172,-178 -202,-221 -163,-236 25,-10 49,1 64,29 17,32 67,33 130,2 43,-21 45,-24 50,-75 5,-50 19,-71 46,-72 18,0 23,48 26,247 3,172 2,183 -17,197 -11,9 -23,16 -26,16 -4,0 -53,-48 -110,-108 z m 95,-17 c 8,-22 -12,-117 -27,-127 -20,-13 -44,-9 -68,11 l -24,20 27,25 c 15,14 35,39 44,56 20,33 39,39 48,15 z"
       id="path229" />
    <path
       d="m 10368,2363 c -16,-2 -28,-9 -28,-14 0,-6 -13,-14 -28,-20 -46,-16 -83,-105 -51,-124 5,-4 14,-18 19,-30 18,-48 55,-59 179,-54 43,2 63,-23 59,-71 -3,-31 -7,-36 -41,-44 -32,-8 -42,-6 -67,12 -21,16 -37,21 -56,16 -44,-11 -41,-33 10,-82 42,-40 51,-44 82,-39 36,6 108,62 131,101 18,30 16,64 -7,111 -26,54 -70,75 -155,75 -35,0 -70,3 -79,6 -27,10 -18,40 20,69 l 36,27 29,-21 c 33,-24 52,-27 68,-7 9,10 2,22 -34,55 -24,22 -48,40 -52,40 -5,-1 -20,-4 -35,-6 z"
       id="path231" />
    <path
       d="m 3408,2218 c -19,-46 -41,-99 -48,-118 -7,-19 -17,-39 -22,-44 -4,-6 -8,-17 -8,-26 0,-8 -9,-32 -20,-53 -28,-51 -25,-62 18,-81 20,-9 50,-23 65,-31 16,-8 37,-15 47,-15 10,0 22,-4 25,-10 12,-19 53,-11 60,11 9,29 -8,43 -85,73 -64,24 -65,25 -62,58 2,18 7,38 11,43 5,6 13,24 19,40 6,17 20,55 32,85 33,85 40,113 34,132 -11,37 -33,16 -66,-64 z"
       id="path233" />
    <path
       d="m 10070,2233 c -36,-14 -76,-28 -90,-30 -14,-3 -36,-13 -50,-23 -23,-17 -23,-20 -11,-61 6,-24 16,-53 20,-64 20,-48 41,-104 57,-155 9,-30 24,-70 33,-88 14,-29 19,-32 46,-26 16,3 41,12 55,19 14,7 40,16 57,20 18,3 35,11 38,16 4,5 14,9 23,9 33,0 44,15 33,44 -12,31 -28,29 -119,-11 -29,-13 -59,-23 -67,-23 -17,0 -57,86 -53,115 2,13 12,21 28,23 50,6 140,36 140,47 0,7 -8,19 -18,29 -18,15 -24,14 -97,-15 -85,-35 -88,-34 -100,29 -8,45 2,53 92,82 75,23 97,46 73,75 -15,18 -10,19 -90,-12 z"
       id="path235" />
    <path
       d="m 3702,2160 c -13,-22 -9,-40 11,-40 7,0 25,-10 41,-23 l 28,-23 -27,-64 c -33,-78 -72,-165 -92,-203 -14,-27 -13,-30 7,-52 13,-14 27,-22 32,-19 9,6 68,126 68,138 0,4 13,34 29,69 16,34 32,70 35,80 9,27 36,32 70,13 29,-17 31,-17 43,1 8,9 12,23 11,30 -3,13 -181,100 -223,110 -13,3 -25,-3 -33,-17 z"
       id="path237" />
    <path
       d="m 9780,2112 c -21,-17 -22,-21 -10,-58 7,-21 16,-43 21,-48 5,-6 9,-19 9,-31 0,-11 6,-29 14,-40 20,-29 30,-85 16,-85 -7,0 -35,22 -64,50 -28,27 -66,60 -84,74 -18,13 -43,35 -55,48 -21,24 -24,25 -54,12 -34,-14 -39,-23 -25,-39 4,-6 16,-37 26,-70 10,-33 22,-68 27,-77 5,-10 18,-48 30,-85 30,-100 41,-118 72,-121 35,-4 44,18 23,55 -16,29 -66,174 -66,192 0,19 18,12 49,-18 16,-16 44,-37 60,-47 17,-10 31,-22 31,-25 0,-11 89,-69 105,-69 46,0 56,27 31,83 -39,92 -76,198 -76,220 0,8 -6,20 -14,27 -8,6 -16,23 -18,37 -4,34 -19,38 -48,15 z"
       id="path239" />
    <path
       d="m 4000,1988 c -12,-29 -26,-62 -31,-73 -4,-11 -23,-54 -42,-95 -64,-142 -63,-139 -38,-163 l 22,-22 20,24 c 10,13 19,30 19,37 0,8 4,22 9,32 5,9 14,30 20,45 14,36 37,44 70,23 14,-9 41,-24 59,-32 39,-17 40,-34 6,-108 -27,-60 -25,-96 5,-96 26,0 30,7 100,175 35,83 68,160 74,172 8,19 6,26 -12,42 -22,19 -51,19 -51,-1 0,-5 -8,-28 -19,-51 -10,-23 -21,-50 -24,-59 -9,-25 -43,-21 -102,10 -45,25 -50,30 -48,59 2,17 13,48 25,69 21,36 21,37 3,50 -31,23 -40,17 -65,-38 z"
       id="path241" />
    <path
       d="m 9410,1963 c 0,-25 9,-51 68,-188 9,-22 30,-74 47,-115 32,-79 55,-98 75,-60 9,17 8,29 -4,55 -9,18 -16,37 -16,42 0,5 -9,28 -20,51 -11,23 -36,81 -55,129 -40,98 -50,113 -76,113 -14,0 -19,-7 -19,-27 z"
       id="path243" />
    <path
       d="m 9230,1895 c -14,-8 -34,-14 -44,-15 -26,0 -89,-23 -98,-34 -4,-6 -2,-18 4,-29 5,-10 27,-69 48,-130 76,-218 77,-222 97,-219 41,7 42,9 23,68 -9,32 -15,66 -12,76 2,11 25,30 51,43 54,27 69,49 77,110 8,56 1,85 -30,118 -28,31 -75,35 -116,12 z m 68,-61 c 37,-25 27,-72 -23,-106 -57,-39 -68,-36 -89,22 -20,56 -21,55 26,80 43,23 58,24 86,4 z"
       id="path245" />
    <path
       d="m 8841,1752 c -41,-16 -79,-35 -84,-44 -10,-14 8,-74 44,-153 5,-11 25,-63 43,-115 30,-84 37,-95 57,-95 31,0 37,43 14,96 -10,21 -15,45 -12,54 6,15 15,19 84,45 23,9 36,24 52,61 l 21,49 -26,51 c -19,36 -37,56 -60,65 -43,18 -46,18 -133,-14 z m 128,-58 c 6,-14 11,-35 11,-48 0,-31 -52,-79 -81,-74 -26,4 -56,49 -61,93 -2,25 1,31 20,33 12,2 34,10 49,17 31,17 47,11 62,-21 z"
       id="path247" />
    <path
       d="m 8492,1618 c -24,-24 0,-427 26,-436 25,-8 42,19 42,67 0,25 4,52 9,59 8,13 100,42 137,42 11,0 33,-13 49,-30 32,-33 47,-37 65,-15 14,17 7,27 -93,139 -34,37 -66,75 -71,84 -5,8 -27,35 -50,59 -42,45 -88,57 -114,31 z m 117,-142 c 31,-33 50,-60 46,-66 -4,-7 -23,-19 -43,-27 -31,-13 -37,-13 -49,0 -16,16 -29,147 -15,147 4,0 31,-24 61,-54 z"
       id="path249" />
    <path
       d="m 8254,1526 c -16,-12 -17,-18 -7,-33 7,-10 22,-38 33,-63 l 21,-45 -27,-22 c -46,-36 -103,-58 -122,-47 -9,6 -27,39 -41,74 -26,65 -46,84 -57,56 -6,-15 22,-115 50,-181 7,-16 23,-61 35,-100 39,-122 50,-134 86,-94 18,19 18,22 3,52 -58,119 -59,149 -3,155 16,2 38,10 50,18 40,26 56,10 95,-98 25,-68 35,-76 61,-52 25,22 24,34 -5,97 -13,29 -42,97 -66,151 -43,102 -67,146 -79,146 -4,0 -16,-6 -27,-14 z"
       id="path251" />
  </g>
</svg>
